<svg id="Capa_1" enable-background="new 0 0 512.001 512.001" height="512" viewBox="0 0 512.001 512.001" width="512" xmlns="http://www.w3.org/2000/svg"><g><path d="m450.18 70.417c-41.007-43.264-98.865-70.391-163.179-70.391-124.265 0-225 100.735-225 225 0 64.314 27.127 122.172 70.391 163.178 40.327 38.223 94.658 61.822 154.609 61.822 124.265 0 225-100.735 225-225 0-59.951-23.598-114.282-61.821-154.609z" fill="#fd697f"/><path d="m512.001 225.026c0-59.951-23.599-114.282-61.822-154.609l-317.786 317.787c40.327 38.223 94.658 61.822 154.609 61.822 124.264 0 224.999-100.736 224.999-225z" fill="#fc445f"/><path d="m365.122 155.475c-19.232-21.586-46.935-35.449-78.12-35.449-57.99 0-105 47.01-105 105 0 31.185 13.863 58.889 35.449 78.12 18.554 16.531 42.746 26.88 69.551 26.88 57.99 0 105-47.01 105-105-.001-26.805-10.35-50.997-26.88-69.551z" fill="#fc445f"/><path d="m392.001 225.026c0-26.805-10.349-50.997-26.88-69.551l-147.67 147.671c18.554 16.531 42.746 26.88 69.551 26.88 57.989 0 104.999-47.011 104.999-105z" fill="#e1105a"/><path d="m217.524 303.073c-1.824-2.357-4.146-4.356-7.207-5.303-7.998-2.505-16.333 1.992-18.765 9.917-7.148 23.218-26.396 40.591-50.215 45.352-38.174 7.646-67.778 37.251-75.41 75.41-5.244 26.265-27.605 48.626-53.87 53.87-8.115 1.626-13.389 9.521-11.763 17.651 1.055 5.297 4.869 9.071 9.496 10.836 2.569.98 5.317 1.511 8.156.927 38.174-7.632 69.764-39.222 77.396-77.396 1.011-5.046 3.038-9.633 5.098-14.18 6.605-14.564 18.043-26.003 32.607-32.607 4.547-2.06 9.133-4.087 14.18-5.098 34.629-6.914 62.607-32.183 73.008-65.918 1.489-4.857.178-9.728-2.711-13.461z" fill="#ffa7b3"/><path d="m302.631 217.965c-26.279-26.279-79.497-5.361-106.069 21.226-26.558 26.558-26.558 58.271 0 84.844 26.552 26.552 58.286 26.572 84.858 0 26.573-26.587 47.491-79.791 21.211-106.07z" fill="#fcced3"/><path d="m281.42 324.034c26.572-26.587 47.49-79.79 21.211-106.069l-106.069 106.069c26.552 26.553 58.286 26.573 84.858 0z" fill="#ffa7b3"/></g></svg>