<svg id="Flat" height="512" viewBox="0 0 512 512" width="512" xmlns="http://www.w3.org/2000/svg"><path d="m40 72h448v416h-448z" fill="#c3c6c7"/><path d="m24 56h432v400h-432z" fill="#e9eef2"/><path d="m24 56h432v96h-432z" fill="#eb423f"/><g fill="#6a7073"><path d="m112 56v-8a8 8 0 0 0 -16 0v32a8.009 8.009 0 0 0 8 8 8 8 0 0 1 0 16 24.028 24.028 0 0 1 -24-24v-32a24 24 0 0 1 48 0v8z"/><path d="m176 56v-8a8 8 0 0 0 -16 0v32a8.009 8.009 0 0 0 8 8 8 8 0 0 1 0 16 24.028 24.028 0 0 1 -24-24v-32a24 24 0 0 1 48 0v8z"/><path d="m320 56v-8a8 8 0 0 0 -16 0v32a8.009 8.009 0 0 0 8 8 8 8 0 0 1 0 16 24.028 24.028 0 0 1 -24-24v-32a24 24 0 0 1 48 0v8z"/><path d="m384 56v-8a8 8 0 0 0 -16 0v32a8.009 8.009 0 0 0 8 8 8 8 0 0 1 0 16 24.028 24.028 0 0 1 -24-24v-32a24 24 0 0 1 48 0v8z"/></g><circle cx="240" cy="304" fill="#f7cc38" r="104"/><path d="m136 304a104 104 0 0 1 104-104v104z" fill="#f89f00"/><path d="m344 304a104 104 0 0 0 -104-104v104z" fill="#eb423f"/><circle cx="240" cy="304" fill="#dcdee0" r="72"/><path d="m264 316.8c0 10.6-10.745 19.2-24 19.2s-24-8.6-24-19.2 24-44.8 24-44.8 24 34.2 24 44.8z" fill="#eb423f"/></svg>