<svg width="40" height="40" viewBox="0 0 40 40" fill="none" xmlns="http://www.w3.org/2000/svg">
<path fill-rule="evenodd" clip-rule="evenodd" d="M20 25C22.7614 25 25 22.7614 25 20C25 17.2386 22.7614 15 20 15C17.2386 15 15 17.2386 15 20C15 22.7614 17.2386 25 20 25Z" stroke="#878E88" stroke-width="2" stroke-linecap="round" stroke-linejoin="round"/>
<path fill-rule="evenodd" clip-rule="evenodd" d="M32.3332 25C31.8793 26.0284 32.0971 27.2296 32.8832 28.0333L32.9832 28.1333C33.6091 28.7585 33.9608 29.6069 33.9608 30.4916C33.9608 31.3763 33.6091 32.2247 32.9832 32.85C32.3579 33.4759 31.5095 33.8276 30.6248 33.8276C29.7401 33.8276 28.8917 33.4759 28.2665 32.85L28.1665 32.75C27.3629 31.9638 26.1616 31.746 25.1332 32.2C24.1257 32.6317 23.4709 33.6206 23.4665 34.7166V35C23.4665 36.8409 21.9741 38.3333 20.1332 38.3333C18.2922 38.3333 16.7998 36.8409 16.7998 35V34.85C16.7734 33.7211 16.0596 32.7231 14.9998 32.3333C13.9714 31.8794 12.7701 32.0972 11.9665 32.8833L11.8665 32.9833C11.2413 33.6092 10.3929 33.9609 9.50817 33.9609C8.62347 33.9609 7.77506 33.6092 7.14984 32.9833C6.52391 32.3581 6.17221 31.5097 6.17221 30.625C6.17221 29.7403 6.52391 28.8919 7.14984 28.2666L7.24984 28.1666C8.03595 27.363 8.25375 26.1618 7.79984 25.1333C7.36806 24.1258 6.37924 23.471 5.28317 23.4666H4.99984C3.15889 23.4666 1.6665 21.9742 1.6665 20.1333C1.6665 18.2923 3.15889 16.8 4.99984 16.8H5.14984C6.27872 16.7736 7.27673 16.0597 7.6665 15C8.12041 13.9715 7.90261 12.7703 7.1165 11.9666L7.0165 11.8666C6.39058 11.2414 6.03888 10.393 6.03888 9.50829C6.03888 8.62359 6.39058 7.77519 7.0165 7.14996C7.64173 6.52404 8.49014 6.17234 9.37484 6.17234C10.2595 6.17234 11.1079 6.52404 11.7332 7.14996L11.8332 7.24996C12.6368 8.03607 13.838 8.25387 14.8665 7.79996H14.9998C16.0073 7.36818 16.6621 6.37936 16.6665 5.28329V4.99996C16.6665 3.15901 18.1589 1.66663 19.9998 1.66663C21.8408 1.66663 23.3332 3.15901 23.3332 4.99996V5.14996C23.3375 6.24603 23.9924 7.23484 24.9998 7.66663C26.0283 8.12054 27.2295 7.90274 28.0332 7.11663L28.1332 7.01663C28.7584 6.3907 29.6068 6.039 30.4915 6.039C31.3762 6.039 32.2246 6.3907 32.8498 7.01663C33.4758 7.64185 33.8275 8.49026 33.8275 9.37496C33.8275 10.2597 33.4758 11.1081 32.8498 11.7333L32.7498 11.8333C31.9637 12.6369 31.7459 13.8381 32.1998 14.8666V15C32.6316 16.0074 33.6204 16.6623 34.7165 16.6666H34.9998C36.8408 16.6666 38.3332 18.159 38.3332 20C38.3332 21.8409 36.8408 23.3333 34.9998 23.3333H34.8498C33.7538 23.3377 32.7649 23.9925 32.3332 25Z" stroke="#878E88" stroke-width="2" stroke-linecap="round" stroke-linejoin="round"/>
</svg>
