<?xml version="1.0" encoding="UTF-8" standalone="no"?>
<!-- Generator: Adobe Illustrator 19.0.0, SVG Export Plug-In . SVG Version: 6.00 Build 0)  -->

<svg
   xmlns:dc="http://purl.org/dc/elements/1.1/"
   xmlns:cc="http://creativecommons.org/ns#"
   xmlns:rdf="http://www.w3.org/1999/02/22-rdf-syntax-ns#"
   xmlns:svg="http://www.w3.org/2000/svg"
   xmlns="http://www.w3.org/2000/svg"
   xmlns:sodipodi="http://sodipodi.sourceforge.net/DTD/sodipodi-0.dtd"
   xmlns:inkscape="http://www.inkscape.org/namespaces/inkscape"
   version="1.1"
   id="Capa_1"
   x="0px"
   y="0px"
   viewBox="0 0 511.999 511.999"
   style="enable-background:new 0 0 511.999 511.999;"
   xml:space="preserve"
   sodipodi:docname="maternity.svg"
   inkscape:version="0.92.4 (5da689c313, 2019-01-14)"><metadata
   id="metadata79"><rdf:RDF><cc:Work
       rdf:about=""><dc:format>image/svg+xml</dc:format><dc:type
         rdf:resource="http://purl.org/dc/dcmitype/StillImage" /></cc:Work></rdf:RDF></metadata><defs
   id="defs77" /><sodipodi:namedview
   pagecolor="#ffffff"
   bordercolor="#666666"
   borderopacity="1"
   objecttolerance="10"
   gridtolerance="10"
   guidetolerance="10"
   inkscape:pageopacity="0"
   inkscape:pageshadow="2"
   inkscape:window-width="1366"
   inkscape:window-height="705"
   id="namedview75"
   showgrid="false"
   inkscape:zoom="0.65186535"
   inkscape:cx="-80.201155"
   inkscape:cy="370.22737"
   inkscape:window-x="-8"
   inkscape:window-y="-8"
   inkscape:window-maximized="1"
   inkscape:current-layer="Capa_1" />
<g
   id="g6"
   transform="matrix(0.95152374,0,0,0.97680781,-44.86471,6.5084622)">
	<g
   id="g4">
		<path
   d="m 273.869,346.504 c -6.576,0 -13.003,1.885 -18.542,5.329 -5.539,-3.444 -11.966,-5.329 -18.542,-5.329 -19.593,0 -35.534,16.235 -35.534,36.19 0,11.32 8.173,24.948 24.986,41.666 11.349,11.284 22.542,19.872 23.013,20.232 1.794,1.371 3.937,2.058 6.079,2.058 2.143,0 4.285,-0.687 6.079,-2.058 0.471,-0.36 11.664,-8.947 23.013,-20.232 16.813,-16.718 24.986,-30.347 24.986,-41.666 -0.003,-19.956 -15.944,-36.19 -35.538,-36.19 z m -18.546,77.337 c -17.403,-14.424 -34.054,-32.945 -34.054,-41.147 0,-8.916 6.961,-16.171 15.516,-16.171 4.258,0 8.231,1.765 11.185,4.968 1.896,2.055 4.563,3.223 7.358,3.223 2.795,0 5.462,-1.168 7.358,-3.223 2.955,-3.203 6.928,-4.968 11.186,-4.968 8.553,0 15.514,7.255 15.514,16.171 -0.001,8.182 -16.658,26.708 -34.063,41.147 z"
   id="path2"
   inkscape:connector-curvature="0" />
	</g>
</g>
<g
   id="g12"
   transform="matrix(0.95152374,0,0,0.97680781,-44.86471,6.5084622)">
	<g
   id="g10">
		<path
   d="m 242.07,269.678 c -6.493,-5.6 -14.233,-8.041 -21.811,-6.87 -47.042,7.269 -69.469,44.04 -70.401,45.603 -2.832,4.747 -1.279,10.892 3.468,13.724 4.748,2.834 10.893,1.278 13.724,-3.468 0.18,-0.301 18.429,-30.227 56.266,-36.074 2.27,-0.344 4.531,1.257 5.68,2.246 3.538,3.053 5.994,8.126 5.97,12.337 -0.023,4.044 -2.585,7.608 -6.375,8.867 -18.658,6.204 -31.509,13.571 -38.198,21.895 l -38.326,47.701 c -3.953,4.921 -9.41,7.644 -14.938,7.456 -2.384,-0.079 -4.074,-0.848 -5.65,-2.569 -9.628,-10.521 -7.722,-44.806 -6.908,-59.446 0.126,-2.262 0.239,-4.309 0.315,-6.082 3.923,-90.44 39.19,-116.201 94.824,-128.451 l 3.443,-0.759 c 5.399,-1.189 8.811,-6.529 7.621,-11.928 -1.189,-5.399 -6.533,-8.813 -11.928,-7.621 l -3.442,0.759 c -36.981,8.143 -62.337,22.118 -79.796,43.979 -18.937,23.713 -28.699,56.491 -30.722,103.154 -0.074,1.702 -0.184,3.666 -0.304,5.837 -1.543,27.74 -2.006,58.629 12.126,74.072 5.193,5.674 12.025,8.807 19.757,9.063 0.403,0.014 0.806,0.021 1.207,0.021 0.701,0 1.399,-0.021 2.095,-0.062 0.247,16.297 3.953,31.953 11.044,46.555 1.731,3.565 5.298,5.639 9.01,5.639 1.467,0 2.958,-0.323 4.365,-1.008 4.975,-2.414 7.048,-8.403 4.632,-13.376 -6.01,-12.375 -9.057,-25.681 -9.057,-39.552 v -5.554 c 2.888,-2.115 5.551,-4.653 7.908,-7.588 l 38.325,-47.7 c 4.06,-5.052 14.597,-10.678 28.91,-15.438 11.935,-3.97 20.003,-15.121 20.077,-27.749 0.061,-10.114 -4.889,-20.694 -12.911,-27.613 z"
   id="path8"
   inkscape:connector-curvature="0" />
	</g>
</g>
<g
   id="g18"
   transform="matrix(0.95152374,0,0,0.97680781,-44.86471,6.5084622)">
	<g
   id="g16">
		<path
   d="m 184.652,463.717 -0.259,-0.274 c -3.778,-4.036 -10.113,-4.245 -14.148,-0.467 -4.036,3.778 -4.245,10.112 -0.467,14.148 l 0.429,0.452 c 1.965,2.049 4.592,3.08 7.224,3.08 2.492,0 4.988,-0.925 6.928,-2.787 3.989,-3.827 4.121,-10.163 0.293,-14.152 z"
   id="path14"
   inkscape:connector-curvature="0" />
	</g>
</g>
<g
   id="g24"
   transform="matrix(0.95152374,0,0,0.97680781,-44.86471,6.5084622)">
	<g
   id="g22">
		<path
   d="m 344.222,185.976 c -14.537,-9.255 -30.463,-15.911 -47.331,-19.783 -5.387,-1.235 -10.759,2.129 -11.995,7.517 -1.237,5.388 2.128,10.758 7.516,11.994 14.638,3.36 28.453,9.134 41.06,17.159 1.667,1.061 3.526,1.566 5.365,1.566 3.308,0 6.545,-1.639 8.453,-4.635 2.968,-4.662 1.595,-10.849 -3.068,-13.818 z"
   id="path20"
   inkscape:connector-curvature="0" />
	</g>
</g>
<g
   id="g30"
   transform="matrix(0.95152374,0,0,0.97680781,-44.86471,6.5084622)">
	<g
   id="g28">
		<path
   d="m 372.257,209.08 -0.529,-0.552 c -3.839,-3.978 -10.176,-4.089 -14.153,-0.249 -3.978,3.839 -4.089,10.176 -0.249,14.153 l 0.448,0.465 c 1.967,2.063 4.603,3.101 7.244,3.101 2.481,0 4.97,-0.918 6.906,-2.768 3.999,-3.815 4.15,-10.151 0.333,-14.15 z"
   id="path26"
   inkscape:connector-curvature="0" />
	</g>
</g>
<g
   id="g36"
   transform="matrix(0.80752593,0,0,0.87114954,9.1379694,57.293743)">
	<g
   id="g34">
		<path
   d="m 394.672,239.279 c -2.719,-4.815 -8.823,-6.513 -13.637,-3.794 -4.815,2.719 -6.512,8.823 -3.794,13.637 10.1,17.884 10.902,38.853 10.902,64.407 v 30.503 c 0,35.219 -8.067,84.687 -46.493,120.351 -7.04,6.533 -20.565,13.147 -39.117,19.132 -0.659,0.179 -1.311,0.353 -1.961,0.526 -4.399,0.897 -8.905,-0.072 -12.597,-2.768 -4.171,-3.047 -6.556,-7.758 -6.544,-12.926 0.016,-7.118 4.62,-13.261 11.458,-15.285 17.768,-5.261 30.534,-11.416 37.943,-18.292 26.426,-24.527 25.059,-62.489 23.852,-95.982 -0.26,-7.22 -0.505,-14.037 -0.505,-20.721 0,-0.715 -0.078,-1.41 -0.22,-2.083 2.066,-3.832 3.442,-7.803 4.114,-11.943 3.027,-18.673 -9.094,-34.456 -18.833,-47.138 -3.85,-5.014 -9.667,-12.589 -9.722,-15.277 -10e-4,-5.527 -4.482,-10.008 -10.009,-10.008 -5.527,0 -10.009,4.482 -10.009,10.009 0,9.415 6.425,17.782 13.864,27.468 7.778,10.128 16.593,21.606 14.95,31.743 -1.068,6.589 -6.646,13.335 -16.578,20.049 -4.579,3.096 -5.782,9.319 -2.687,13.898 1.935,2.861 5.089,4.404 8.301,4.404 1.93,0 3.879,-0.557 5.597,-1.719 0.555,-0.375 1.084,-0.756 1.622,-1.134 0.037,1.059 0.074,2.122 0.112,3.172 1.104,30.627 2.244,62.296 -17.464,80.589 -4.984,4.626 -15.642,9.517 -30.008,13.771 -15.393,4.558 -25.757,18.397 -25.793,34.435 -0.019,8.188 2.643,15.861 7.486,22.087 -11.469,1.541 -18.362,1.593 -18.474,1.593 -14.723,0 -29.336,-3.606 -42.258,-10.428 -4.888,-2.58 -10.942,-0.71 -13.525,4.18 -2.58,4.889 -0.71,10.943 4.179,13.525 15.792,8.336 33.636,12.742 51.604,12.742 0.948,0 23.017,-0.102 54.971,-8.527 0.678,-0.156 1.353,-0.347 2.028,-0.542 0.207,-0.056 0.41,-0.109 0.62,-0.166 0.052,-0.014 0.1,-0.035 0.152,-0.05 0.09,-0.028 0.182,-0.047 0.272,-0.076 21.728,-6.991 37.474,-14.925 46.802,-23.582 34.603,-32.115 52.894,-78.806 52.894,-135.024 v -30.503 c -0.005,-27.558 -1.019,-52.164 -13.495,-74.253 z"
   id="path32"
   inkscape:connector-curvature="0" />
	</g>
</g>
<g
   id="g42"
   transform="matrix(0.95152374,0,0,0.97680781,-44.86471,6.5084622)">
	<g
   id="g40">
		<path
   d="m 255.425,0 c -11.518,0 -22.447,2.539 -32.287,7.056 -18.108,-12.243 -42.902,-8.162 -56.071,9.551 -13.541,18.217 -9.737,44.055 8.478,57.595 0.712,0.53 1.472,0.946 2.259,1.26 -0.021,0.738 -0.056,1.471 -0.056,2.214 v 12.303 c 0,42.831 34.846,77.677 77.677,77.677 42.831,0 77.677,-34.846 77.677,-77.677 V 77.677 C 333.101,34.846 298.256,0 255.425,0 Z m -72.292,28.55 c 4.794,-6.451 12.592,-9.379 20.04,-8.299 -9.478,8.631 -16.8,19.578 -21.105,31.927 -4.349,-7.143 -4.223,-16.513 1.065,-23.628 z m 72.292,119.087 c -29.61,0 -54.067,-22.438 -57.287,-51.203 15.057,-1.132 47.653,-5.803 69.281,-25.037 14.957,16.782 35.408,22.58 45.364,24.488 -2.969,29.029 -27.559,51.752 -57.358,51.752 z m 21.55,-96.983 c -1.695,-2.91 -4.739,-4.773 -8.103,-4.957 -3.356,-0.181 -6.593,1.336 -8.595,4.044 -14.993,20.276 -47.562,25.348 -62.478,26.615 0.708,-31.183 26.276,-56.337 57.625,-56.337 31.052,0 56.436,24.679 57.601,55.452 -9.695,-2.37 -26.649,-8.68 -36.05,-24.817 z"
   id="path38"
   inkscape:connector-curvature="0" />
	</g>
</g>
<g
   id="g44">
</g>
<g
   id="g46">
</g>
<g
   id="g48">
</g>
<g
   id="g50">
</g>
<g
   id="g52">
</g>
<g
   id="g54">
</g>
<g
   id="g56">
</g>
<g
   id="g58">
</g>
<g
   id="g60">
</g>
<g
   id="g62">
</g>
<g
   id="g64">
</g>
<g
   id="g66">
</g>
<g
   id="g68">
</g>
<g
   id="g70">
</g>
<g
   id="g72">
</g>
<path
   d="m 301.3817,175.38565 c 0,1.02313 0.87756,1.85235 1.95862,1.85235 h 12.24679 c 1.08184,0 1.95863,-0.82922 1.95863,-1.85235 v -3.59112 c 2.5753,-0.65557 5.03735,-1.62082 7.35098,-2.88128 l 2.68087,2.53542 c 0.36725,0.3473 0.86532,0.54267 1.38558,0.54267 0.51873,0 1.01758,-0.19537 1.38481,-0.5434 l 8.65622,-8.19234 c 0.76433,-0.72359 0.76433,-1.89651 0,-2.61935 l -2.67781,-2.53253 c 1.33278,-2.1881 2.35341,-4.51657 3.04659,-6.95213 h 3.78259 c 1.08185,0 1.95863,-0.82921 1.95863,-1.85236 v -11.58231 c 0,-1.02313 -0.87678,-1.85235 -1.95863,-1.85235 h -3.78336 c -0.69316,-2.43484 -1.71304,-4.76332 -3.04582,-6.95141 l 2.66328,-2.51878 c 0.36724,-0.34732 0.57381,-0.81908 0.57381,-1.3104 -5.1e-4,-0.4913 -0.20733,-0.96307 -0.57457,-1.31039 l -8.66311,-8.18655 c -0.76433,-0.72287 -2.00454,-0.72287 -2.76963,5.1e-4 l -2.65945,2.51587 c -2.31363,-1.26045 -4.77568,-2.22572 -7.35098,-2.88128 v -3.55783 c 0,-1.02314 -0.87679,-1.85235 -1.95863,-1.85235 h -12.24679 c -1.08106,0 -1.95862,0.82921 -1.95862,1.85235 v 3.55856 c -2.57453,0.65483 -5.03657,1.6201 -7.35022,2.88055 l -2.6602,-2.51587 c -0.76433,-0.72286 -2.00454,-0.72358 -2.76962,-5.1e-4 l -8.66236,8.18727 c -0.368,0.34733 -0.57457,0.81837 -0.57457,1.30967 0,0.49132 0.20657,0.96308 0.57382,1.3104 l 2.66328,2.51878 c -1.3328,2.18809 -2.35342,4.51585 -3.04659,6.95141 h -3.77571 c -1.08185,0 -1.95864,0.82922 -1.95864,1.85164 l -0.007,11.5823 c -5.2e-4,0.49131 0.20581,0.96307 0.57306,1.3104 0.36723,0.34731 0.86531,0.54268 1.38556,0.54268 h 3.78261 c 0.69316,2.43556 1.71381,4.76403 3.04659,6.95213 l -2.67781,2.53253 c -0.76433,0.72284 -0.7651,1.89576 0,2.61935 l 8.6562,8.19234 c 0.36726,0.34732 0.86533,0.5434 1.38483,0.5434 h 5.2e-4 c 0.5195,0 1.01758,-0.19537 1.3848,-0.54267 l 2.6801,-2.53542 c 2.31442,1.26046 4.77646,2.22571 7.351,2.88128 z m -6.58282,-10.36814 c -0.77505,-0.47395 -1.79491,-0.3712 -2.44829,0.24601 l -2.38477,2.25539 -5.88738,-5.57227 2.38249,-2.25394 c 0.65263,-0.61722 0.76126,-1.58175 0.26014,-2.31473 -1.77577,-2.59908 -3.0244,-5.4478 -3.70992,-8.46803 -0.19435,-0.8531 -0.99155,-1.46306 -1.91502,-1.46306 h -3.3641 l 0.005,-7.8776 h 3.35952 c 0.92345,0 1.72067,-0.60925 1.91501,-1.46307 0.68552,-3.0195 1.93415,-5.86821 3.70991,-8.4673 0.50115,-0.73298 0.3925,-1.69751 -0.26012,-2.31473 l -2.3672,-2.23947 5.89196,-5.56792 2.3649,2.2373 c 0.65337,0.61721 1.67247,0.71923 2.44828,0.24602 2.74744,-1.67943 5.7596,-2.86032 8.95307,-3.50864 0.90204,-0.1838 1.54701,-0.93847 1.54701,-1.81111 v -3.16348 h 8.32953 v 3.16275 c 0,0.87337 0.64421,1.62804 1.54701,1.81111 3.19271,0.64905 6.20564,1.82921 8.95307,3.50864 0.77503,0.47394 1.79491,0.37192 2.44752,-0.24601 l 2.36566,-2.23658 5.89196,5.56792 -2.36719,2.23875 c -0.65339,0.61794 -0.76128,1.58247 -0.26014,2.31545 1.77578,2.59909 3.02363,5.4478 3.70992,8.4673 0.19356,0.85382 0.99157,1.46307 1.91501,1.46307 h 3.36565 v 7.8776 h -3.36565 c -0.92344,0 -1.72068,0.60996 -1.91501,1.46306 -0.68552,3.01949 -1.93414,5.86895 -3.70992,8.46731 -0.50114,0.7337 -0.39249,1.69823 0.26014,2.31545 l 2.38247,2.25321 -5.88734,5.57228 -2.38479,-2.25467 c -0.65338,-0.61793 -1.67326,-0.71996 -2.44829,-0.24601 -2.7482,1.67942 -5.76036,2.85958 -8.95307,3.50862 -0.9028,0.18378 -1.54701,0.93774 -1.54701,1.81111 v 3.19604 h -8.32953 v -3.19604 c 0,-0.87262 -0.64497,-1.62733 -1.54701,-1.81111 -3.19272,-0.64834 -6.20488,-1.8292 -8.95307,-3.50862 z m 0,0"
   id="path6"
   inkscape:connector-curvature="0"
   style="fill:#000000;stroke-width:0.19047527" /><path
   style="fill:#ff5555;stroke-width:2.16948724"
   d="m 184.05361,405.11416 c -6.6025,-6.76236 -13.14218,-15.0417 -14.53263,-18.39853 -3.40656,-8.22418 -0.94377,-16.63745 5.76503,-19.69419 4.65488,-2.1209 6.96839,-1.71625 14.87178,2.60115 l 9.35936,5.11277 5.97108,-4.69685 c 7.27976,-5.72627 12.06533,-5.92594 18.4337,-0.76916 7.00731,5.67419 6.04663,13.7328 -3.1269,26.22964 -8.00162,10.90039 -19.51845,21.91036 -22.91904,21.91036 -0.99981,0 -7.21987,-5.53284 -13.82238,-12.29519 z"
   id="path99"
   inkscape:connector-curvature="0" /><path
   style="fill:#ff5555;stroke-width:0.76702958"
   d="m 185.58299,405.62765 c -13.4669,-13.71751 -16.88308,-18.92382 -16.88308,-25.73008 0,-7.99164 3.75847,-12.71343 10.64465,-13.37293 3.15203,-0.30187 4.4658,0.14333 11.84098,4.01261 7.84805,4.11735 8.386,4.28696 9.97139,3.14385 0.92169,-0.66457 3.33892,-2.40563 5.37164,-3.86902 6.8943,-4.96337 11.42039,-4.95747 17.23833,0.0225 5.17939,4.43336 5.66125,9.40304 1.70428,17.57705 -4.67615,9.65964 -23.21399,29.55354 -27.53904,29.55354 -0.67034,0 -6.22745,-5.10187 -12.34915,-11.33749 z"
   id="path101"
   inkscape:connector-curvature="0" /><path
   style="fill:#ff5555;stroke-width:0.76702958"
   d="m 185.96413,406.03496 c -5.92731,-6.01159 -12.14456,-13.00115 -13.8161,-15.53234 -2.69646,-4.0832 -3.06673,-5.20766 -3.28349,-9.97139 -0.39285,-8.63371 3.04594,-13.29394 10.32489,-13.99223 3.2315,-0.31 4.47827,0.0543 9.83676,2.87399 l 6.13624,3.22898 15.72411,0.38044 c 8.64825,0.20924 16.04894,0.68689 16.44596,1.06145 1.12277,1.05924 0.74557,7.65883 -0.62514,10.93782 -4.21282,10.0778 -23.9003,31.94346 -28.76137,31.94346 -0.66272,0 -6.05456,-4.91858 -11.98186,-10.93018 z m 14.46592,-31.85912 c 0.20486,-0.33146 -0.26717,-0.60266 -1.04896,-0.60266 -0.78178,0 -1.25382,0.2712 -1.04896,0.60266 0.20486,0.33147 0.67689,0.60267 1.04896,0.60267 0.37207,0 0.84411,-0.2712 1.04896,-0.60267 z"
   id="path103"
   inkscape:connector-curvature="0" /><path
   style="fill:#ff5555;stroke-width:0.76702958"
   d="m 185.95807,406.04289 c -5.90612,-6.01595 -12.11411,-12.95759 -13.79553,-15.42585 -2.75266,-4.04083 -3.08128,-5.03386 -3.29971,-9.97139 -0.28671,-6.48072 1.09685,-9.8704 5.12796,-12.56336 4.3163,-2.88348 7.90737,-2.38007 17.44653,2.44572 4.55186,2.30275 8.4602,3.9171 8.68521,3.58744 0.22501,-0.32966 0.92685,-0.83122 1.55965,-1.11457 1.13129,-0.50657 7.93327,-5.15275 9.74725,-6.65799 3.74954,-3.11136 14.61443,2.95399 16.31335,9.10697 0.84979,3.0777 -0.0369,7.96745 -2.21989,12.24225 -5.0128,9.81608 -23.33372,29.2534 -27.59918,29.28095 -0.67497,0.004 -6.05951,-4.91421 -11.96564,-10.93017 z"
   id="path105"
   inkscape:connector-curvature="0" /><path
   style="fill:#ff5555;stroke-width:0.76702958"
   d="m 185.9461,406.03786 c -5.91271,-6.01319 -12.1207,-12.95256 -13.79553,-15.42082 -2.73753,-4.03442 -3.06965,-5.0417 -3.28774,-9.97139 -0.28671,-6.48072 1.09685,-9.8704 5.12796,-12.56336 4.04052,-2.69924 7.83053,-2.31541 15.89524,1.60976 10.07195,4.90212 9.13745,4.8959 16.45415,0.10956 3.5543,-2.3251 7.32562,-4.21988 8.38072,-4.21061 5.07842,0.0446 12.34697,5.8188 13.40848,10.65182 1.336,6.08278 -4.95174,17.36874 -16.38191,29.40415 -7.02114,7.39291 -11.81187,11.31631 -13.82376,11.32106 -0.67497,0.002 -6.0649,-4.91698 -11.97761,-10.93017 z"
   id="path231"
   inkscape:connector-curvature="0" /><path
   style="fill:#ff5555;stroke-width:0.76702958"
   d="m 167.90371,386.22678 c -2.00342,-3.92702 -1.8455,-10.7941 0.32438,-14.10576 1.78638,-2.72635 2.45921,-1.97813 0.91189,1.01406 -1.53027,2.95923 -1.55312,9.30189 -0.0465,12.90776 1.65126,3.95201 0.79971,4.08366 -1.18978,0.18394 z"
   id="path233"
   inkscape:connector-curvature="0" /><path
   style="fill:#ff5555;stroke-width:0.76702958"
   d=""
   id="path235"
   inkscape:connector-curvature="0" /><path
   style="fill:#ff5555;stroke-width:0.2711859"
   d="m 195.53843,418.11785 c -9.98863,-8.86531 -18.35249,-17.76553 -23.79701,-25.32308 -2.36261,-3.27955 -2.77846,-4.03269 -2.07831,-3.76402 0.30127,0.11561 0.43698,0.0173 0.43698,-0.31639 0,-0.26625 0.62417,0.42239 1.38705,1.5303 3.46731,5.0355 8.71432,11.18041 14.34005,16.79402 4.71879,4.70862 9.58348,9.0867 11.06313,9.95649 l 1.16317,0.68375 1.68429,-0.84366 c 5.04915,-2.52912 16.54059,-14.433 22.67754,-23.49147 4.52717,-6.68235 6.58239,-12.10281 6.16103,-16.24917 -0.54959,-5.40808 -6.60305,-10.95392 -12.61849,-11.56034 -1.20671,-0.12165 -2.53025,-0.1233 -2.94119,-0.004 -1.51469,0.44095 -4.63535,2.24751 -7.13092,4.1281 -3.47655,2.61983 -4.04039,2.94007 -5.14165,2.92019 l -0.94916,-0.0171 1.08475,-0.3413 c 1.65772,-0.52157 2.14684,-0.84697 4.52856,-3.0128 3.50646,-3.18862 6.49732,-4.47733 10.37584,-4.47079 3.7994,0.006 6.88458,1.32892 9.79819,4.20016 3.90372,3.84695 5.70433,9.93855 4.21622,14.26382 -2.02018,5.87176 -8.30146,14.33369 -18.07138,24.34515 -3.47582,3.56176 -9.03239,8.80274 -12.66327,11.94405 l -1.00229,0.86715 z"
   id="path239"
   inkscape:connector-curvature="0" /><path
   style="fill:#ff5555;stroke-width:0.2711859"
   d="m 194.08503,416.63894 c -9.56632,-8.64316 -18.24796,-18.09698 -23.20885,-25.27317 -1.09891,-1.58963 -1.31246,-2.06267 -1.01594,-2.25047 0.2334,-0.14781 0.25599,-0.23934 0.0597,-0.24192 -0.46069,-0.006 -1.89857,-2.46363 -2.51901,-4.30538 -1.47306,-4.3727 -0.75661,-10.42651 1.57659,-13.32181 0.95219,-1.18158 0.9601,-0.35434 0.0187,1.95712 -0.88959,2.1843 -0.9134,2.34378 -0.92162,6.17441 -0.006,3.02158 0.10322,4.2933 0.47371,5.49151 0.26519,0.85763 0.58798,1.55932 0.71733,1.55932 0.12934,0 -0.0102,-0.76271 -0.31008,-1.69491 -0.68668,-2.13457 -0.93852,-6.54968 -0.49535,-8.68441 1.04286,-5.02342 5.03632,-8.9727 10.10174,-9.98998 2.54039,-0.51019 4.45252,0.0958 11.62873,3.68537 l 6.24674,3.12463 h 2.66719 2.6672 L 203.902,371.331 c 6.19665,-4.47473 8.06217,-5.49982 10.53695,-5.78997 l 1.62712,-0.19077 -1.62712,-0.0753 -1.62711,-0.0753 1.49152,-0.18907 c 5.03695,-0.63853 10.22711,1.94011 13.2531,6.58458 2.04649,3.14107 3.00046,7.02157 2.46807,10.03954 -0.8041,4.55824 -6.09214,12.50024 -14.29661,21.47175 -4.78375,5.231 -16.97774,16.94912 -17.63741,16.94912 -0.12315,0 -1.92563,-1.5375 -4.00551,-3.41666 z m 6.65907,-0.32741 c 2.57444,-1.64971 5.31436,-3.99948 9.01683,-7.73289 8.9704,-9.04535 15.6124,-18.35531 18.02746,-25.26873 0.90906,-2.6023 1.12162,-6.07149 0.48874,-7.9769 -0.58726,-1.76808 -0.80659,-1.68614 -0.26891,0.10047 1.8304,6.08194 -2.87893,15.56468 -14.05549,28.30228 -6.05307,6.89851 -13.93441,13.60798 -15.98472,13.60798 -0.71994,0 -5.08544,-3.76243 -10.2094,-8.79902 -5.70511,-5.60782 -9.99952,-10.3252 -13.24071,-14.54483 -1.13674,-1.4799 -2.12225,-2.63528 -2.19002,-2.56751 -0.15901,0.15902 2.91943,4.10443 6.0407,7.74191 3.33943,3.89173 9.057,9.72505 13.25362,13.52194 3.99663,3.61593 5.72502,4.91872 6.52557,4.91866 0.30934,-2e-5 1.47768,-0.58653 2.59633,-1.30336 z m -29.77309,-27.28394 c -0.4161,-0.67766 -0.83961,-1.09729 -0.97552,-0.96659 -0.13784,0.13256 -0.0504,0.42077 0.20516,0.67634 0.24495,0.24495 0.57089,0.67991 0.72431,0.96659 0.15343,0.28667 0.392,0.52122 0.53016,0.52122 0.13817,0 -0.0797,-0.5389 -0.48411,-1.19756 z m 55.89006,-16.72597 c -1.20649,-2.06576 -5.54332,-5.48995 -7.67633,-6.06093 -0.37288,-0.0998 0.0788,0.20612 1.00367,0.67985 2.12402,1.08791 5.02712,3.47043 6.12276,5.02483 0.97725,1.38644 1.25768,1.56811 0.5499,0.35625 z m -8.89667,-6.4832 c -0.2983,-0.12818 -0.84746,-0.2272 -1.22034,-0.22004 -0.61517,0.0118 -0.60261,0.0322 0.1356,0.22004 1.12924,0.28734 1.75342,0.28734 1.08474,0 z"
   id="path241"
   inkscape:connector-curvature="0" /><path
   style="fill:#ff5555;stroke-width:0.2711859"
   d="m 193.11601,415.75792 c -5.63653,-5.14216 -11.82216,-11.45796 -15.73467,-16.06582 -3.10168,-3.65292 -7.02555,-8.8327 -7.55554,-9.97383 -0.18225,-0.3924 -0.4446,-0.93407 -0.583,-1.2037 -1.56028,-3.03987 -1.93282,-3.94846 -2.26854,-5.5328 -0.75949,-3.58426 -0.30702,-7.76528 1.12514,-10.39662 1.53569,-2.82156 2.14756,-2.47817 0.95621,0.53664 -0.4696,1.18838 -0.84579,2.50246 -0.83598,2.92018 0.013,0.55145 0.12258,0.37059 0.40021,-0.6603 1.24528,-4.62391 4.65995,-7.9776 9.34467,-9.17777 3.08353,-0.78996 4.20553,-0.46341 12.28327,3.57494 l 6.18161,3.09041 h 2.64955 2.64955 l 1.88068,-1.36209 c 5.79456,-4.19674 8.34727,-5.63869 10.55798,-5.96389 l 1.35658,-0.19956 -1.35593,-0.0677 -1.35593,-0.0677 1.49152,-0.22137 c 7.86558,-1.16735 15.7786,6.23625 15.81564,14.79748 0.01,2.22052 -0.0784,2.64632 -0.97588,4.72062 -1.97102,4.55564 -5.52857,9.65324 -11.49033,16.46443 -4.84824,5.53903 -18.74967,19.08605 -19.58535,19.08605 -0.13232,0 -2.36047,-1.93396 -4.95146,-4.29768 z m 6.35076,1.28432 c 5.27648,-2.64669 17.52223,-15.33487 23.30147,-24.14335 1.39586,-2.1275 2.36943,-3.79336 2.03807,-3.48729 -0.0807,0.0746 -0.99242,1.41694 -2.02596,2.98304 -6.25863,9.48355 -17.9098,21.66588 -23.31358,24.37641 -0.62796,0.31498 -1.3024,0.57269 -1.49876,0.57269 -0.72917,0 -5.11135,-3.78715 -10.33779,-8.93409 -5.7035,-5.61675 -9.25603,-9.49699 -12.87513,-14.06285 -1.21788,-1.53648 -2.21263,-2.69579 -2.21054,-2.57626 0.008,0.46996 6.10813,7.78633 9.75594,11.70143 5.92816,6.36253 14.5406,14.1319 15.67475,14.14035 0.19239,10e-4 0.86357,-0.2551 1.49153,-0.57008 z m -28.39618,-27.56931 c -0.46697,-0.44726 -0.47275,-0.44148 -0.12972,0.12972 0.19746,0.32881 0.4174,0.53946 0.48874,0.46812 0.0713,-0.0713 -0.0902,-0.34037 -0.35902,-0.59784 z m 55.04338,-2.25861 c 0.53349,-1.05936 0.92575,-1.97031 0.87171,-2.02435 -0.054,-0.054 -0.549,0.8127 -1.09993,1.92609 -0.55092,1.11339 -0.94319,2.02435 -0.87171,2.02435 0.0715,0 0.56645,-0.86674 1.09993,-1.92609 z m -55.68846,1.05829 c -0.17401,-0.17401 -0.40641,-0.22635 -0.51644,-0.11632 -0.11003,0.11003 -0.0241,0.30881 0.19102,0.44175 0.21509,0.13293 0.44748,0.18528 0.51644,0.11633 0.069,-0.069 -0.017,-0.26774 -0.19102,-0.44176 z m -1.6636,-4.29319 c -0.32677,-1.24818 -0.53599,-1.72238 -0.54519,-1.23571 -0.0158,0.83473 0.85884,3.91096 0.99544,3.50116 0.044,-0.13201 -0.15861,-1.15146 -0.45025,-2.26545 z m 59.38105,-2.06098 c 0.61503,-2.40474 0.6578,-4.91538 0.11028,-6.47292 -0.20973,-0.59661 -0.3136,-0.77966 -0.23082,-0.40678 0.0828,0.37288 0.2173,1.53949 0.29892,2.59246 0.13674,1.7638 -0.26107,4.13853 -1.133,6.76346 -0.15935,0.4797 -0.14541,0.48844 0.12059,0.0756 0.16541,-0.25671 0.54073,-1.40504 0.83403,-2.55185 z m -60.01303,-3.82886 c -0.0559,-0.70847 -0.10157,-0.12881 -0.10157,1.28814 0,1.41694 0.0457,1.9966 0.10157,1.28813 0.0559,-0.70847 0.0559,-1.86779 0,-2.57627 z m 57.00956,-7.81558 c -1.14618,-1.17492 -4.55316,-3.64202 -5.02952,-3.64202 -0.12219,0 0.68744,0.60008 1.79918,1.33352 1.11174,0.73343 2.50373,1.83173 3.09332,2.44067 0.5896,0.60893 1.13365,1.10716 1.20901,1.10716 0.0754,0 -0.40704,-0.5577 -1.07199,-1.23933 z m -7.9265,-4.61942 c -0.0901,-0.0901 -0.32401,-0.0998 -0.51977,-0.0214 -0.21634,0.0866 -0.15208,0.15083 0.16384,0.16384 0.28587,0.0118 0.44604,-0.0523 0.35593,-0.14243 z"
   id="path243"
   inkscape:connector-curvature="0" /><path
   style="fill:#ff5555;stroke-width:0.13559295"
   d="m 195.65264,418.14384 c -9.43674,-8.41809 -17.45426,-16.83589 -22.71126,-23.84514 -2.24409,-2.99207 -3.45637,-4.81087 -3.4717,-5.20865 -0.013,-0.33648 -0.0171,-0.33823 -0.10169,-0.0433 -0.0742,0.2585 -0.23216,0.0539 -0.99455,-1.28813 -1.05369,-1.85479 -1.75316,-3.43367 -2.23861,-5.05308 -0.28554,-0.95255 -0.34464,-1.42312 -0.34058,-2.71186 0.0185,-5.8867 3.36897,-11.36403 8.5025,-13.89997 1.75086,-0.86492 3.04521,-1.24157 4.85499,-1.4128 3.25052,-0.30753 6.51264,0.54819 9.20972,2.41588 0.92806,0.64267 4.02405,3.53267 3.80101,3.54811 -0.0567,0.004 0.81221,0.47189 1.93085,1.03994 l 2.03389,1.03282 2.7205,0.0613 c 2.32918,0.0525 2.78187,0.0296 3.14713,-0.15928 0.23464,-0.12134 1.39007,-0.93968 2.56762,-1.81853 3.37222,-2.51682 3.79768,-2.79811 5.99315,-3.96236 1.86828,-0.99074 2.19054,-1.11623 3.31213,-1.28968 l 1.24249,-0.19215 -1.12708,0.0519 c -1.04305,0.048 -1.24019,0.10755 -2.64407,0.79862 -1.85139,0.91136 -3.61395,2.02722 -6.16894,3.90547 -2.74128,2.01521 -3.2293,2.29153 -4.18205,2.36792 l -0.79309,0.0636 1.01807,-0.37967 c 1.39684,-0.52092 1.81102,-0.79991 3.92353,-2.64291 2.95402,-2.57715 4.77755,-3.67318 7.19404,-4.32399 0.99215,-0.26721 1.47314,-0.30982 3.45755,-0.30631 2.68815,0.005 3.6763,0.21012 5.69491,1.18362 6.33439,3.05482 10.22914,11.16505 8.22607,17.12954 -2.47486,7.36932 -11.83153,18.85316 -26.3349,32.32196 -2.22808,2.06914 -5.21606,4.7395 -5.2993,4.73599 -0.0272,-10e-4 -1.11725,-0.95462 -2.42233,-2.11883 z m 3.81923,-1.14459 c 5.69357,-2.87312 18.18778,-16.00351 23.96965,-25.19015 1.26975,-2.01746 1.53117,-2.45954 1.45443,-2.45954 -0.0368,0 -0.53713,0.74746 -1.11187,1.66102 -6.62689,10.53357 -20.28956,24.72742 -25.23457,26.21565 -0.53993,0.16249 -0.66918,0.15868 -1.04465,-0.0308 -2.32662,-1.17418 -11.61353,-9.93366 -17.44691,-16.45605 -1.93997,-2.16911 -3.74629,-4.32721 -5.61781,-6.71185 -1.60273,-2.04216 -1.98117,-2.49248 -1.76622,-2.10169 0.43943,0.79889 3.8858,5.07647 6.50007,8.06778 5.62311,6.4341 14.99623,15.38295 18.01837,17.20279 0.88143,0.53077 0.82783,0.5354 2.27951,-0.19715 z m -28.36156,-27.5141 c -0.16542,-0.23231 -0.33127,-0.39188 -0.36856,-0.35459 -0.0373,0.0373 0.0676,0.25787 0.23297,0.49019 0.16542,0.23231 0.33128,0.39188 0.36857,0.35459 0.0373,-0.0373 -0.0675,-0.25787 -0.23298,-0.49019 z m 54.89606,-2.13558 c 0.4381,-0.87627 0.83832,-1.74576 0.88938,-1.9322 0.0511,-0.18644 -0.31924,0.48474 -0.82288,1.49152 -0.50364,1.00678 -0.93898,1.87627 -0.96743,1.9322 -0.0284,0.0559 -0.0166,0.10169 0.0263,0.10169 0.0429,0 0.4365,-0.71695 0.87461,-1.59321 z m -55.43843,1.27525 c 0,-0.23172 -0.46667,-0.66169 -0.58727,-0.54109 -0.14159,0.14159 -0.10852,0.27948 0.12238,0.51038 0.26124,0.26125 0.46489,0.2747 0.46489,0.0307 z m -1.56272,-0.52949 c -0.19677,-0.31695 -0.66166,-1.18644 -1.03308,-1.9322 -0.37143,-0.74576 -0.63305,-1.20339 -0.5814,-1.01695 0.18625,0.67216 1.7293,3.52542 1.90657,3.52542 0.0361,0 -0.0953,-0.25932 -0.29209,-0.57627 z m -0.1107,-3.32002 c -0.18631,-0.65365 -0.40347,-1.43252 -0.48259,-1.73082 -0.14287,-0.53869 -0.14348,-0.53732 -0.0897,0.20339 0.0583,0.80299 0.75496,3.16004 0.85216,2.88336 0.0324,-0.0921 -0.0936,-0.70229 -0.27991,-1.35593 z m -1.65829,-0.5008 c -0.0499,-0.19871 -0.11683,-0.33515 -0.14879,-0.30318 -0.032,0.032 -0.0173,0.22069 0.0326,0.4194 0.0499,0.19872 0.11683,0.33515 0.14879,0.30319 0.032,-0.032 0.0173,-0.2207 -0.0326,-0.41941 z m 60.53517,-1.11655 c 0.63191,-1.94286 0.87433,-3.60606 0.79272,-5.43874 -0.0648,-1.45495 -0.2913,-2.72999 -0.45577,-2.56552 -0.0368,0.0367 0.011,0.3323 0.10611,0.65678 0.22625,0.77183 0.22709,4.00579 0.001,5.06452 -0.14197,0.66575 -0.51126,1.96299 -1.05065,3.69069 -0.0682,0.21845 -0.0615,0.21998 0.0706,0.016 0.0803,-0.12404 0.32135,-0.76471 0.53569,-1.42373 z m -60.77184,0.33568 c -0.0433,-0.10817 -0.0754,-0.076 -0.0819,0.0819 -0.006,0.14294 0.0262,0.22302 0.0712,0.17797 0.0451,-0.0451 0.0499,-0.16201 0.0107,-0.25989 z m -0.13842,-0.68644 c -0.0376,-0.0932 -0.0684,-0.017 -0.0684,0.16949 0,0.18644 0.0308,0.26271 0.0684,0.16949 0.0376,-0.0932 0.0376,-0.24576 0,-0.33898 z m -0.13193,-0.88135 c -0.0341,-0.13051 -0.062,-0.0237 -0.062,0.23728 0,0.26102 0.0279,0.3678 0.062,0.23729 0.0341,-0.13051 0.0341,-0.34406 0,-0.47457 z m -0.13079,-1.4213 c -0.0302,-0.24371 -0.0555,-0.077 -0.0563,0.37045 -7.6e-4,0.44746 0.0239,0.64686 0.0549,0.44311 0.0309,-0.20375 0.0316,-0.56985 0.001,-0.81356 z m 0,-2.98305 c -0.0302,-0.2437 -0.0555,-0.077 -0.0563,0.37046 -7.6e-4,0.44745 0.0239,0.64685 0.0549,0.4431 0.0309,-0.20375 0.0316,-0.56985 0.001,-0.81356 z m 0.13079,-1.15496 c -0.0341,-0.13051 -0.062,-0.0237 -0.062,0.23728 0,0.26102 0.0279,0.3678 0.062,0.23729 0.0341,-0.13051 0.0341,-0.34407 0,-0.47457 z m 2.4779,-2.9164 c 1.02608,-2.46477 2.73543,-4.42702 5.09676,-5.85086 0.44354,-0.26745 0.74542,-0.48641 0.67084,-0.4866 -0.0746,-1.7e-4 -0.62372,0.31233 -1.22033,0.69447 -1.20241,0.77015 -2.62972,2.1461 -3.37647,3.25496 -0.26836,0.3985 -0.48798,0.63383 -0.48804,0.52296 -1.8e-4,-0.32357 -0.80247,1.45603 -1.23242,2.73367 -0.21703,0.6449 -0.39123,1.3771 -0.38712,1.62712 0.006,0.34619 0.0681,0.22342 0.26162,-0.51492 0.13978,-0.53322 0.4436,-1.42459 0.67516,-1.9808 z m -2.04583,1.18759 c -0.0196,-0.22947 -0.36921,0.93168 -0.3674,1.22033 9.4e-4,0.14915 0.0866,-0.0339 0.19036,-0.40678 0.10375,-0.37288 0.18343,-0.73898 0.17704,-0.81355 z m 0.27642,-0.81356 c 0.004,-0.0746 -0.0517,-0.0441 -0.12399,0.0678 -0.0723,0.11187 -0.12809,0.29492 -0.12399,0.40678 0.008,0.21476 0.23386,-0.21773 0.24798,-0.47457 z m 1.42357,-2.49245 c 0.28019,-0.38169 0.47681,-0.69399 0.43694,-0.69399 -0.11581,0 -1.24582,1.63999 -1.5612,2.26578 -0.45684,0.90648 -0.32761,0.87052 0.16664,-0.0464 0.24651,-0.45729 0.67744,-1.14373 0.95762,-1.52542 z m 56.66695,-0.61842 c -1.11028,-1.25039 -3.36032,-3.01005 -4.75699,-3.72025 -0.83184,-0.42298 -0.70857,-0.24752 0.18548,0.26401 1.18086,0.67562 3.28195,2.30485 4.25127,3.29655 0.4826,0.49372 0.89951,0.89768 0.92649,0.89768 0.027,0 -0.24584,-0.3321 -0.60625,-0.73799 z m -55.62764,-0.2548 c -0.10453,-0.10453 -0.1945,-0.0975 -0.31569,0.0246 -0.13589,0.1369 -0.12246,0.15284 0.0678,0.0804 0.19484,-0.0742 0.24092,-0.009 0.2576,0.36485 0.0194,0.4342 0.023,0.43723 0.0784,0.0658 0.0319,-0.21417 -0.008,-0.45519 -0.0881,-0.5356 z m 21.54868,-0.15699 c 0,-0.0358 -0.24407,-0.18956 -0.54238,-0.34174 -0.2983,-0.15218 -0.54237,-0.24641 -0.54237,-0.20939 0,0.037 0.22882,0.18811 0.50848,0.33575 0.57532,0.30372 0.57627,0.30408 0.57627,0.21538 z m -1.22034,-0.67902 c 0,-0.0364 -0.42712,-0.28118 -0.94915,-0.54408 -0.52203,-0.26289 -0.94915,-0.44755 -0.94915,-0.41035 0,0.0524 1.71345,0.98416 1.8644,1.01385 0.0187,0.004 0.0339,-0.0231 0.0339,-0.0594 z m -2.30508,-1.21928 c 0,-0.0822 -1.03704,-0.61504 -1.18104,-0.6068 -0.0589,0.003 0.16748,0.15315 0.50308,0.33285 0.68359,0.36605 0.67796,0.36377 0.67796,0.27395 z m -2.30508,-1.1553 c -0.26102,-0.1429 -0.53559,-0.25982 -0.61017,-0.25982 -0.0746,0 0.078,0.11692 0.33898,0.25982 0.26102,0.1429 0.5356,0.25982 0.61017,0.25982 0.0746,0 -0.078,-0.11692 -0.33898,-0.25982 z m -9.6271,-0.47458 c 0.18644,-0.10657 0.27797,-0.19378 0.20339,-0.19378 -0.0746,0 -0.28814,0.0872 -0.47458,0.19378 -0.18644,0.10658 -0.27796,0.19378 -0.20339,0.19378 0.0746,0 0.28814,-0.0872 0.47458,-0.19378 z m 8.67795,0.0678 c -0.11187,-0.0723 -0.26441,-0.13144 -0.33898,-0.13144 -0.0746,0 -0.0441,0.0591 0.0678,0.13144 0.11187,0.0723 0.26441,0.13144 0.33899,0.13144 0.0746,0 0.0441,-0.0592 -0.0678,-0.13144 z m -0.89633,-0.34271 c -0.23196,-0.10175 -0.59806,-0.21926 -0.81356,-0.26114 -0.21549,-0.0419 -0.0867,0.0416 0.28616,0.18555 0.77366,0.29863 1.16316,0.35446 0.5274,0.0756 z m -6.23012,-0.32261 c 0.0418,-0.0676 -0.0461,-0.091 -0.19538,-0.052 -0.31661,0.0828 -0.35663,0.17493 -0.076,0.17493 0.10746,0 0.22958,-0.0553 0.27137,-0.12295 z m 4.92024,-0.0946 c -0.0451,-0.0451 -0.16201,-0.0499 -0.25989,-0.0107 -0.10816,0.0433 -0.076,0.0754 0.0819,0.0819 0.14294,0.006 0.22303,-0.0262 0.17797,-0.0712 z m -4.06779,-0.1356 c -0.0451,-0.0451 -0.16201,-0.0499 -0.25989,-0.0107 -0.10816,0.0433 -0.076,0.0754 0.0819,0.0819 0.14294,0.006 0.22303,-0.0262 0.17797,-0.0712 z m 0.88676,-0.14261 c -0.0918,-0.0371 -0.27485,-0.0394 -0.40678,-0.005 -0.13193,0.0344 -0.0568,0.0648 0.16691,0.0675 0.22373,0.003 0.33167,-0.0254 0.23987,-0.0625 z m 0.94915,0 c -0.0918,-0.0371 -0.27485,-0.0394 -0.40678,-0.005 -0.13193,0.0344 -0.0568,0.0648 0.16691,0.0675 0.22373,0.003 0.33167,-0.0254 0.23987,-0.0625 z m 0.94657,-8.5e-4 c -0.0932,-0.0376 -0.24576,-0.0376 -0.33898,0 -0.0932,0.0376 -0.017,0.0684 0.16949,0.0684 0.18644,0 0.26271,-0.0308 0.16949,-0.0684 z m 35.93213,-0.1356 c -0.0932,-0.0376 -0.24576,-0.0376 -0.33898,0 -0.0932,0.0376 -0.017,0.0684 0.16949,0.0684 0.18644,0 0.26271,-0.0308 0.16949,-0.0684 z"
   id="path245"
   inkscape:connector-curvature="0" /><path
   style="fill:#ff5555;stroke-width:0.13559295"
   d="m 195.7195,418.21413 c -6.59453,-5.8707 -13.07127,-12.33765 -17.8407,-17.81374 -3.85089,-4.42145 -8.3931,-10.53948 -8.39768,-11.31106 -0.001,-0.24428 -0.0368,-0.29514 -0.11711,-0.16844 -0.0858,0.13539 -0.18861,0.0625 -0.40471,-0.28719 -0.39311,-0.63607 -0.3644,-0.79849 0.0532,-0.30109 0.29865,0.35571 0.28879,0.31451 -0.0786,-0.32817 -0.23105,-0.40422 -0.6603,-1.2127 -0.95388,-1.79661 -0.55513,-1.10409 -0.68402,-1.27258 -0.57871,-0.75657 0.13114,0.64266 -0.51997,-0.76428 -1.00537,-2.17242 -0.48872,-1.41776 -0.50116,-1.50287 -0.49007,-3.35299 0.008,-1.39694 0.0853,-2.22273 0.29115,-3.12669 0.33112,-1.45384 1.08699,-3.4839 1.25786,-3.3783 0.0662,0.0409 0.28175,-0.24823 0.47907,-0.64252 0.19731,-0.39428 0.59461,-1.03263 0.88287,-1.41855 0.33702,-0.45117 0.4648,-0.72177 0.35794,-0.75799 -0.24593,-0.0833 1.29333,-1.77979 2.44597,-2.69575 1.70454,-1.35454 3.56867,-2.31161 5.56084,-2.85501 0.86088,-0.23483 1.43354,-0.28577 3.21681,-0.28619 1.90943,-4.5e-4 2.32835,0.0419 3.49473,0.35293 1.58999,0.42404 3.5038,1.34026 4.70864,2.25421 0.48475,0.36771 1.52204,1.28647 2.30508,2.04168 1.30964,1.26309 1.57514,1.44972 3.31317,2.32899 l 1.88943,0.95586 2.67455,0.0744 c 3.22368,0.0897 2.77864,0.25803 6.35784,-2.4043 2.92879,-2.17852 3.41434,-2.49275 5.74735,-3.71937 1.34857,-0.70904 1.98015,-0.95958 2.77965,-1.10269 l 1.03458,-0.18518 -0.86438,0.0705 c -0.4754,0.0388 -1.1771,0.19298 -1.55931,0.34263 -1.63875,0.64161 -4.22398,2.23685 -7.4746,4.61225 -2.4151,1.76485 -2.87942,2.01919 -3.8241,2.09474 l -0.78606,0.0629 1.01695,-0.38311 c 1.35029,-0.50869 1.81007,-0.81858 3.87631,-2.6126 2.19271,-1.90384 3.32041,-2.70552 4.86943,-3.46166 2.03543,-0.99358 2.9951,-1.1921 5.76271,-1.1921 2.82573,0 3.76897,0.20174 5.89829,1.2615 1.66185,0.82711 2.80869,1.68287 4.18293,3.12128 3.77524,3.95149 5.34351,9.62044 3.87862,14.02028 -2.29654,6.89771 -11.62078,18.50229 -24.73948,30.78979 -2.48231,2.32503 -6.65456,6.08116 -6.82394,6.14335 -0.0512,0.0188 -1.13003,-0.88885 -2.39732,-2.01704 z m 3.59753,-1.13751 c 1.19351,-0.60104 1.2388,-0.73135 0.063,-0.1811 -1.22251,0.57208 -1.59615,0.55526 -2.57787,-0.11604 -3.37977,-2.31113 -12.36458,-11.01179 -17.96417,-17.39604 -0.68681,-0.78305 -2.34804,-2.7966 -3.69163,-4.47457 -1.34359,-1.67796 -2.47474,-3.08135 -2.51368,-3.11864 -0.26861,-0.25722 0.36087,0.628 1.41436,1.98899 4.03798,5.21657 9.45645,11.15263 14.82599,16.24221 5.47834,5.1927 8.32978,7.53147 9.18246,7.53147 0.1737,0 0.74141,-0.21433 1.26158,-0.47628 z m 2.9525,-1.88296 c 0.74361,-0.55341 1.39127,-1.06971 1.43925,-1.14734 0.048,-0.0776 -0.53995,0.32874 -1.30649,0.90305 -0.76655,0.57431 -1.54627,1.15275 -1.73271,1.28541 -0.26205,0.18646 -0.27238,0.20987 -0.0455,0.10314 0.1614,-0.0759 0.90187,-0.59085 1.64547,-1.14426 z m 2.06106,-1.64076 c 0.17515,-0.18644 0.28795,-0.33898 0.25066,-0.33898 -0.0373,0 -0.2111,0.15254 -0.38626,0.33898 -0.17515,0.18644 -0.28794,0.33899 -0.25066,0.33899 0.0373,0 0.21111,-0.15255 0.38626,-0.33899 z m 1.08474,-0.94915 c 0.25299,-0.26101 0.42947,-0.47457 0.39218,-0.47457 -0.0373,0 -0.27479,0.21356 -0.52777,0.47457 -0.25299,0.26102 -0.42947,0.47458 -0.39218,0.47458 0.0373,0 0.27478,-0.21356 0.52777,-0.47458 z m 1.55932,-1.42372 c 0.51803,-0.52204 0.91137,-0.94915 0.87408,-0.94915 -0.0373,0 -0.49164,0.42711 -1.00967,0.94915 -0.51804,0.52203 -0.91137,0.94915 -0.87408,0.94915 0.0373,0 0.49164,-0.42712 1.00967,-0.94915 z m 4.54278,-4.54202 c 4.04756,-4.30675 7.14015,-7.9982 9.71276,-11.59354 1.26044,-1.76153 3.00698,-4.42912 3.28471,-5.01694 0.19378,-0.41013 0.27732,-0.53084 -1.54028,2.22561 -3.14605,4.77107 -7.26647,9.82818 -12.67636,15.55804 -1.08048,1.14439 -1.8217,1.95883 -1.64716,1.80987 0.17455,-0.14896 1.4644,-1.49133 2.86633,-2.98304 z m -40.35989,-17.07152 c -0.13784,-0.1892 -0.30053,-0.34592 -0.36154,-0.34826 -0.061,-0.002 0.0219,0.1823 0.18428,0.41032 0.16237,0.22803 0.32506,0.38474 0.36154,0.34826 0.0365,-0.0365 -0.0465,-0.22113 -0.18428,-0.41032 z m -0.5896,-0.83601 c 0,-0.21768 -0.3058,-0.60126 -0.47934,-0.60126 -0.25853,0 -0.25109,0.12407 0.0258,0.43001 0.21685,0.23961 0.45356,0.32899 0.45356,0.17125 z m 55.46466,-1.42904 c 0.37816,-0.75358 0.66597,-1.39176 0.63955,-1.41817 -0.0264,-0.0264 -0.3654,0.59016 -0.75332,1.37015 -0.38792,0.78 -0.67572,1.41818 -0.63956,1.41818 0.0362,0 0.37516,-0.61657 0.75333,-1.37016 z m -57.28562,-2.98174 c -0.49905,-1.7925 -0.66967,-1.77595 -0.211,0.0205 0.31857,1.24774 0.52161,1.81919 0.61365,1.72714 0.0361,-0.0361 -0.1451,-0.82252 -0.40265,-1.74761 z m -1.55735,-0.001 c -0.0715,-0.17862 -0.13378,-0.25349 -0.13851,-0.16637 -0.0115,0.21161 0.14647,0.61309 0.21446,0.5451 0.0297,-0.0297 -0.005,-0.2001 -0.076,-0.37873 z m 60.57094,-1.20605 c 0.22341,-0.70848 0.48714,-1.65424 0.58606,-2.1017 0.23424,-1.05954 0.23701,-4.5454 0.004,-5.33571 -0.25844,-0.87748 -0.28371,-0.63376 -0.0612,0.58996 0.37576,2.06615 0.0734,4.73939 -0.83538,7.38477 -0.19119,0.55655 -0.2919,0.95316 -0.2238,0.88136 0.0681,-0.0718 0.30661,-0.71021 0.53003,-1.41868 z m -60.89661,-0.16102 c -0.0433,-0.10817 -0.0754,-0.076 -0.0819,0.0819 -0.006,0.14294 0.0262,0.22302 0.0712,0.17797 0.0451,-0.0451 0.0499,-0.16201 0.0107,-0.25989 z m -0.13559,-0.81356 c -0.0433,-0.10817 -0.0754,-0.076 -0.0819,0.0819 -0.006,0.14294 0.0262,0.22302 0.0712,0.17797 0.0451,-0.0451 0.0499,-0.16201 0.0107,-0.25989 z m -0.13475,-1.4322 c -0.0341,-0.13051 -0.062,-0.0237 -0.062,0.23729 0,0.26101 0.0279,0.36779 0.062,0.23729 0.0341,-0.13051 0.0341,-0.34407 0,-0.47458 z m 0,-3.11864 c -0.0341,-0.13051 -0.062,-0.0237 -0.062,0.23729 0,0.26102 0.0279,0.3678 0.062,0.23729 0.0341,-0.13051 0.0341,-0.34407 0,-0.47458 z m 0.13193,-1.15254 c -0.0376,-0.0932 -0.0684,-0.017 -0.0684,0.16949 0,0.18644 0.0308,0.26272 0.0684,0.16949 0.0376,-0.0932 0.0376,-0.24576 0,-0.33898 z m 2.34812,-2.87457 c 0.002,-0.0813 -0.044,-0.0813 -0.12406,0 -0.1457,0.14801 -0.69166,2.05414 -0.67693,2.36337 0.01,0.20397 0.79568,-2.11508 0.80099,-2.36337 z m -1.96006,1.03605 c -0.0678,-0.0678 -0.34397,0.93368 -0.32939,1.19446 0.006,0.11186 0.0945,-0.0996 0.19603,-0.46988 0.10157,-0.3703 0.16158,-0.69636 0.13336,-0.72458 z m 0.33362,-0.74575 c 0.001,-0.0603 -0.0589,-0.072 -0.13352,-0.0259 -0.0746,0.0461 -0.13466,0.18698 -0.13352,0.31308 0.002,0.1976 0.0202,0.20118 0.13352,0.0259 0.0723,-0.11186 0.13238,-0.25275 0.13352,-0.31309 z m 2.43492,-1.80579 c 0.37707,-0.63909 0.27605,-0.94451 -0.10644,-0.32179 -0.26489,0.43126 -0.37678,0.81356 -0.23811,0.81356 0.0299,0 0.18497,-0.2213 0.34455,-0.49177 z m 55.25832,-1.69038 c -1.04926,-1.06735 -2.60595,-2.30573 -3.81426,-3.03433 -1.25497,-0.75674 -1.15979,-0.5555 0.11615,0.24556 1.3883,0.8716 2.76152,1.96253 3.76491,2.99096 0.40762,0.41779 0.77209,0.75962 0.80992,0.75962 0.0378,0 -0.35669,-0.43282 -0.87672,-0.96181 z m -55.23901,0.10549 c -0.1057,-0.1057 -0.19475,-0.099 -0.31657,0.0237 -0.13589,0.1369 -0.12246,0.15284 0.0678,0.0804 0.18969,-0.0722 0.24099,-0.0126 0.25575,0.29705 0.0164,0.34316 0.0254,0.35077 0.0793,0.0667 0.0334,-0.1764 -0.005,-0.38691 -0.0863,-0.4678 z m 3.9576,-2.59501 c 0.5756,-0.36463 1.02072,-0.6888 0.98914,-0.72037 -0.22553,-0.22553 -3.65182,2.55501 -4.03834,3.27723 -0.0817,0.15274 0.33541,-0.2109 0.92701,-0.80809 0.5916,-0.5972 1.54659,-1.38414 2.12219,-1.74877 z m 17.5902,2.43239 c 0,-0.10024 -0.85549,-0.60787 -1.01695,-0.60344 -0.0746,0.002 0.10847,0.15405 0.40678,0.33778 0.58424,0.35985 0.61017,0.37114 0.61017,0.26566 z m -1.28973,-0.74635 c -0.11511,-0.18625 -1.43143,-0.84688 -1.51698,-0.76133 -0.0373,0.0373 0.28908,0.25206 0.72535,0.47717 0.91078,0.46994 0.90522,0.46795 0.79163,0.28416 z m -2.23569,-1.15195 c 0,-0.12282 -0.87378,-0.60737 -1.08474,-0.60154 -0.11187,0.003 0.0712,0.15264 0.40678,0.33234 0.68784,0.36832 0.67796,0.3644 0.67796,0.2692 z m -1.8983,-0.94368 c 0,-0.10396 -0.78404,-0.47906 -0.97632,-0.46708 -0.0969,0.006 0.0679,0.12647 0.36615,0.26763 0.60829,0.28785 0.61017,0.28846 0.61017,0.19945 z m -10.03388,-0.68145 c 0.21728,-0.1242 0.26309,-0.1955 0.12761,-0.19858 -0.11625,-0.003 -0.32981,0.0848 -0.47457,0.19427 -0.33707,0.25495 -0.0967,0.25794 0.34696,0.004 z m 8.74575,0.0678 c -0.0461,-0.0746 -0.18698,-0.13466 -0.31309,-0.13352 -0.1976,0.002 -0.20118,0.0203 -0.0259,0.13352 0.26554,0.17161 0.44504,0.17161 0.33899,0 z m -0.88136,-0.32751 c -0.18644,-0.0996 -0.49152,-0.21864 -0.67796,-0.26456 -0.18908,-0.0466 -0.0991,0.0343 0.20339,0.18293 0.60413,0.29678 1.00715,0.3661 0.47457,0.0816 z m -6.30507,-0.35045 c 0.0461,-0.0746 -0.008,-0.1356 -0.11959,-0.1356 -0.11186,0 -0.2411,0.061 -0.28719,0.1356 -0.0461,0.0746 0.008,0.13559 0.11959,0.13559 0.11186,0 0.2411,-0.061 0.28719,-0.13559 z m 0.84463,-0.21752 c -0.0451,-0.0451 -0.16201,-0.0499 -0.25989,-0.0107 -0.10816,0.0433 -0.076,0.0754 0.0819,0.0819 0.14294,0.006 0.22303,-0.0262 0.17797,-0.0712 z m 0.81356,-0.13559 c -0.0451,-0.0451 -0.16201,-0.0499 -0.25989,-0.0107 -0.10817,0.0433 -0.076,0.0754 0.0819,0.0819 0.14294,0.006 0.22302,-0.0262 0.17797,-0.0712 z m 2.03389,0 c -0.0451,-0.0451 -0.162,-0.0499 -0.25988,-0.0107 -0.10817,0.0433 -0.076,0.0754 0.0819,0.0819 0.14293,0.006 0.22302,-0.0262 0.17796,-0.0712 z"
   id="path247"
   inkscape:connector-curvature="0" /><path
   style="fill:#ff5555;stroke-width:0.2711859"
   d=""
   id="path287"
   inkscape:connector-curvature="0" /><path
   style="fill:#000000;stroke-width:1.19190788"
   d="m 136.29828,81.093599 c 0.11406,-9.590007 7.50368,-26.835012 16.25625,-35.877193 12.33462,-12.742753 27.27886,-19.365752 44.40068,-19.365752 29.90256,0 54.33877,22.108505 59.71392,51.528716 0.90783,4.968974 0.30497,5.451656 0.65377,7.653572 l -4.08182,-1.031018 c -11.03535,-2.787395 -26.15869,-12.826337 -32.21924,-22.30957 -3.61484,-5.656346 -6.12536,-8.085437 -11.49157,-8.085437 -2.61218,0 -4.62944,1.695588 -10.49526,7.689188 -11.84599,12.104021 -29.67686,20.683477 -48.66536,22.976024 l -14.12946,1.705899 z"
   id="path350"
   inkscape:connector-curvature="0"
   sodipodi:nodetypes="sssscssssscs" /><path
   style="fill:#ffb380;stroke-width:2.20489669"
   d="m 184.69962,150.98072 c -9.58997,-2.82419 -22.1422,-9.80258 -28.42466,-16.21991 -5.88808,-6.01446 -14.67798,-28.95275 -14.77615,-34.05486 0,0 7.20114,0.77337 14.08383,-1.334115 19.33196,-5.919456 35.12728,-8.99224 45.20094,-15.61937 l 8.80724,-7.502856 8.36666,6.4154 c 9.47491,7.265183 25.23121,17.071441 31.36012,17.142672 3.43767,0.03996 6.65557,1.728459 5.38252,7.640849 -6.27427,29.13917 -41.53544,51.915 -70.0005,43.53219 z"
   id="path360"
   inkscape:connector-curvature="0"
   sodipodi:nodetypes="sscsscscss" /><path
   style="fill:#000000;stroke-width:1.53405917"
   d="m 305.10973,173.69484 c 0,-2.44593 -11.84957,-7.44008 -15.14391,-6.17593 -2.84073,1.0901 -7.72885,-3.0969 -6.58648,-6.07387 1.22328,-3.18782 -2.1442,-13.40076 -4.82251,-13.40076 -1.25779,0 -1.46694,-3.13863 -1.46694,-4.83083 0,-1.6922 -0.19763,-4.42405 1.06016,-4.42405 2.67831,0 7.16738,-10.51686 5.9441,-13.70469 -1.20865,-3.14969 4.71495,-7.74541 5.89196,-5.56792 2.86836,-3.59086 14.31006,0.4603 14.31006,-2.43293 0,-2.26831 0.79429,-6.42096 5.32667,-4.37347 4.40282,1.98896 4.39198,-1.40971 4.37752,-0.23697 -0.0317,2.56894 12.57294,8.5074 14.9418,7.04337 2.54711,-1.57421 7.10706,2.10304 6.24859,5.38583 -0.96861,3.70397 2.34492,13.88678 5.24573,13.88678 1.24393,0 3.03553,2.33027 3.07524,4.01727 0.0697,2.95997 0.23173,1.08979 -2.1449,4.55964 -9.88267,14.42855 -7.50597,10.79939 -6.51742,14.5796 0.82176,3.14243 -4.6413,7.3005 -7.13881,5.75696 -2.51804,-1.55623 -13.84582,4.07685 -13.84582,6.53435 0,1.16988 -1.92363,-0.38513 -4.10634,-0.38513 -2.1827,0 -4.6487,1.01263 -4.6487,-0.15725 z"
   id="path375"
   inkscape:connector-curvature="0"
   sodipodi:nodetypes="scssssccssscsssscssss" /><ellipse
   style="fill:#ffffff;stroke-width:1.21511519"
   id="path377"
   cx="308.95102"
   cy="141.79546"
   rx="19.01383"
   ry="17.913433" /></svg>