<svg width="333" height="206" viewBox="0 0 333 206" fill="none" xmlns="http://www.w3.org/2000/svg">
<path d="M339.506 205.154C319.939 205.174 300.559 199.879 282.471 189.572C264.383 179.264 247.942 164.145 234.087 145.078C220.231 126.012 209.232 103.37 201.719 78.4475C194.205 53.5247 190.323 26.8082 190.295 -0.176598L339.292 -0.33172L339.506 205.154Z" fill="#F78161"/>
<path d="M255.314 -0.612937C255.328 20.6053 241.906 40.9632 218.001 55.9823C194.096 71.0014 161.666 79.4514 127.845 79.4734C94.0239 79.4954 61.5828 71.0876 37.658 56.0996C13.7333 41.1117 0.284802 20.7713 0.270994 -0.446957L127.793 -0.529947L255.314 -0.612937Z" fill="#F54C64" fill-opacity="0.5"/>
</svg>
