<svg width="278" height="74" viewBox="0 0 278 74" fill="none" xmlns="http://www.w3.org/2000/svg">
<path d="M8.228 13.494L8.67 17.71H8.806L9.282 13.426L13.43 0.199998H16.49L20.57 13.494L21.046 17.71H21.182L21.692 13.426L24.582 0.199998H29.308L22.746 24.17H19.618L15.368 10.944L14.79 7.306H14.62L14.042 10.978L9.826 24.17H6.528L0 0.199998H5.066L8.228 13.494ZM45.0604 24V14.344C45.0604 12.9613 44.8677 11.964 44.4824 11.352C44.097 10.74 43.3944 10.434 42.3744 10.434C41.6264 10.434 40.935 10.6947 40.3004 11.216C39.6884 11.7147 39.2804 12.3607 39.0764 13.154V24H34.6564V0.199998H39.0764V8.904H39.2124C39.7564 8.17867 40.425 7.60067 41.2184 7.17C42.0117 6.73933 43.0204 6.524 44.2444 6.524C45.1057 6.524 45.865 6.63733 46.5224 6.864C47.1797 7.09067 47.7237 7.46467 48.1544 7.986C48.6077 8.50733 48.9364 9.22133 49.1404 10.128C49.367 11.012 49.4804 12.1113 49.4804 13.426V24H45.0604ZM70.1837 22.538C69.5037 23.082 68.5744 23.5467 67.3957 23.932C66.2397 24.2947 65.0044 24.476 63.6897 24.476C60.947 24.476 58.941 23.6827 57.6717 22.096C56.4024 20.4867 55.7677 18.288 55.7677 15.5C55.7677 12.508 56.4817 10.264 57.9097 8.768C59.3377 7.272 61.3437 6.524 63.9277 6.524C64.789 6.524 65.6277 6.63733 66.4437 6.864C67.2597 7.09067 67.985 7.46467 68.6197 7.986C69.2544 8.50733 69.7644 9.21 70.1497 10.094C70.535 10.978 70.7277 12.0773 70.7277 13.392C70.7277 13.868 70.6937 14.378 70.6257 14.922C70.5804 15.466 70.501 16.0327 70.3877 16.622H60.1877C60.2557 18.05 60.6184 19.1267 61.2757 19.852C61.9557 20.5773 63.0437 20.94 64.5397 20.94C65.469 20.94 66.2964 20.804 67.0217 20.532C67.7697 20.2373 68.3364 19.9427 68.7217 19.648L70.1837 22.538ZM63.8597 10.06C62.7037 10.06 61.8424 10.4113 61.2757 11.114C60.7317 11.794 60.403 12.712 60.2897 13.868H66.6137C66.7044 12.644 66.5117 11.7033 66.0357 11.046C65.5824 10.3887 64.857 10.06 63.8597 10.06ZM87.6533 24V14.344C87.6533 12.9613 87.4493 11.964 87.0413 11.352C86.656 10.74 85.9873 10.434 85.0353 10.434C84.1967 10.434 83.4827 10.6833 82.8933 11.182C82.3267 11.658 81.9187 12.2587 81.6693 12.984V24H77.2493V7H80.7513L81.2613 9.244H81.3973C81.9187 8.51867 82.61 7.884 83.4713 7.34C84.3327 6.796 85.4433 6.524 86.8033 6.524C87.642 6.524 88.39 6.63733 89.0473 6.864C89.7047 7.09067 90.26 7.46467 90.7133 7.986C91.1667 8.50733 91.5067 9.22133 91.7333 10.128C91.96 11.012 92.0733 12.1113 92.0733 13.426V24H87.6533ZM118.262 11.5L121.137 18.8L121.762 21.2H121.812L122.287 18.75L124.512 11.5H126.412L122.212 24.275H121.237L117.962 16.025L117.487 13.975H117.412L116.912 16.05L113.762 24.275H112.787L108.437 11.5H110.612L113.087 18.775L113.512 21.2H113.537L114.137 18.725L116.812 11.5H118.262ZM130.846 12.425C131.479 12.0417 132.212 11.7583 133.046 11.575C133.896 11.3917 134.779 11.3 135.696 11.3C136.562 11.3 137.254 11.4167 137.771 11.65C138.304 11.8833 138.704 12.1917 138.971 12.575C139.254 12.9417 139.437 13.35 139.521 13.8C139.621 14.25 139.671 14.7 139.671 15.15C139.671 16.15 139.646 17.125 139.596 18.075C139.546 19.025 139.521 19.925 139.521 20.775C139.521 21.3917 139.546 21.975 139.596 22.525C139.646 23.075 139.737 23.5833 139.871 24.05H138.396L137.871 22.3H137.746C137.596 22.5333 137.404 22.7667 137.171 23C136.954 23.2167 136.687 23.4167 136.371 23.6C136.054 23.7667 135.687 23.9083 135.271 24.025C134.854 24.1417 134.379 24.2 133.846 24.2C133.312 24.2 132.812 24.1167 132.346 23.95C131.896 23.7833 131.504 23.55 131.171 23.25C130.837 22.9333 130.571 22.5583 130.371 22.125C130.187 21.6917 130.096 21.2 130.096 20.65C130.096 19.9167 130.246 19.3083 130.546 18.825C130.846 18.325 131.262 17.9333 131.796 17.65C132.346 17.35 132.996 17.1417 133.746 17.025C134.512 16.8917 135.354 16.825 136.271 16.825C136.504 16.825 136.729 16.825 136.946 16.825C137.179 16.825 137.412 16.8417 137.646 16.875C137.696 16.375 137.721 15.925 137.721 15.525C137.721 14.6083 137.537 13.9667 137.171 13.6C136.804 13.2333 136.137 13.05 135.171 13.05C134.887 13.05 134.579 13.075 134.246 13.125C133.929 13.1583 133.596 13.2167 133.246 13.3C132.912 13.3667 132.587 13.4583 132.271 13.575C131.971 13.675 131.704 13.7917 131.471 13.925L130.846 12.425ZM134.396 22.45C134.862 22.45 135.279 22.3917 135.646 22.275C136.012 22.1417 136.329 21.9833 136.596 21.8C136.862 21.6 137.079 21.3833 137.246 21.15C137.429 20.9167 137.562 20.6917 137.646 20.475V18.4C137.412 18.3833 137.171 18.375 136.921 18.375C136.687 18.3583 136.454 18.35 136.221 18.35C135.704 18.35 135.196 18.3833 134.696 18.45C134.212 18.5 133.779 18.6083 133.396 18.775C133.029 18.925 132.729 19.1417 132.496 19.425C132.279 19.6917 132.171 20.0333 132.171 20.45C132.171 21.0333 132.379 21.5167 132.796 21.9C133.212 22.2667 133.746 22.45 134.396 22.45ZM151.448 20.6C151.448 20.1 151.298 19.7083 150.998 19.425C150.698 19.1417 150.323 18.9083 149.873 18.725C149.44 18.525 148.956 18.3417 148.423 18.175C147.906 17.9917 147.423 17.7667 146.973 17.5C146.54 17.2167 146.173 16.8583 145.873 16.425C145.573 15.9917 145.423 15.4083 145.423 14.675C145.423 13.475 145.765 12.6 146.448 12.05C147.131 11.4833 148.081 11.2 149.298 11.2C150.198 11.2 150.948 11.2833 151.548 11.45C152.165 11.6 152.698 11.7833 153.148 12L152.673 13.65C152.29 13.4667 151.823 13.3083 151.273 13.175C150.74 13.025 150.165 12.95 149.548 12.95C148.815 12.95 148.273 13.075 147.923 13.325C147.59 13.575 147.423 14.0083 147.423 14.625C147.423 15.0583 147.573 15.4 147.873 15.65C148.173 15.8833 148.54 16.1 148.973 16.3C149.423 16.4833 149.906 16.6667 150.423 16.85C150.956 17.0333 151.44 17.275 151.873 17.575C152.323 17.875 152.698 18.2583 152.998 18.725C153.298 19.175 153.448 19.775 153.448 20.525C153.448 21.0583 153.356 21.5583 153.173 22.025C153.006 22.4917 152.74 22.8917 152.373 23.225C152.006 23.5583 151.548 23.8167 150.998 24C150.465 24.2 149.831 24.3 149.098 24.3C148.148 24.3 147.34 24.2083 146.673 24.025C146.006 23.8417 145.448 23.625 144.998 23.375L145.598 21.675C145.981 21.8917 146.481 22.0917 147.098 22.275C147.715 22.4583 148.34 22.55 148.973 22.55C149.69 22.55 150.281 22.4083 150.748 22.125C151.215 21.8417 151.448 21.3333 151.448 20.6ZM171.469 19.6L172.169 22H172.294L172.844 19.575L175.269 11.5H177.294L173.594 22.725C173.31 23.5417 173.027 24.3333 172.744 25.1C172.477 25.8667 172.177 26.55 171.844 27.15C171.51 27.75 171.135 28.225 170.719 28.575C170.302 28.9417 169.819 29.125 169.269 29.125C168.669 29.125 168.177 29.0417 167.794 28.875L168.144 27.15C168.36 27.2333 168.569 27.275 168.769 27.275C169.235 27.275 169.685 27.025 170.119 26.525C170.552 26.0417 170.91 25.2 171.194 24L166.169 11.5H168.469L171.469 19.6ZM180.971 17.75C180.971 15.6333 181.437 14.0167 182.371 12.9C183.321 11.7667 184.679 11.2 186.446 11.2C187.379 11.2 188.187 11.3583 188.871 11.675C189.571 11.975 190.146 12.4167 190.596 13C191.046 13.5667 191.379 14.2583 191.596 15.075C191.812 15.875 191.921 16.7667 191.921 17.75C191.921 19.8667 191.446 21.4917 190.496 22.625C189.562 23.7417 188.212 24.3 186.446 24.3C185.512 24.3 184.696 24.15 183.996 23.85C183.312 23.5333 182.746 23.0917 182.296 22.525C181.846 21.9417 181.512 21.25 181.296 20.45C181.079 19.6333 180.971 18.7333 180.971 17.75ZM183.046 17.75C183.046 18.3833 183.104 18.9917 183.221 19.575C183.354 20.1583 183.554 20.6667 183.821 21.1C184.087 21.5333 184.437 21.8833 184.871 22.15C185.304 22.4167 185.829 22.55 186.446 22.55C188.712 22.5667 189.846 20.9667 189.846 17.75C189.846 17.1 189.779 16.4833 189.646 15.9C189.529 15.3167 189.337 14.8083 189.071 14.375C188.804 13.9417 188.454 13.6 188.021 13.35C187.587 13.0833 187.062 12.95 186.446 12.95C184.179 12.9333 183.046 14.5333 183.046 17.75ZM199.374 11.5V18.625C199.374 19.275 199.407 19.85 199.474 20.35C199.557 20.8333 199.691 21.2417 199.874 21.575C200.057 21.8917 200.307 22.1333 200.624 22.3C200.941 22.4667 201.341 22.55 201.824 22.55C202.274 22.55 202.674 22.4833 203.024 22.35C203.374 22.2 203.682 22 203.949 21.75C204.232 21.5 204.474 21.2167 204.674 20.9C204.891 20.5667 205.066 20.2167 205.199 19.85V11.5H207.199V20.45C207.199 21.05 207.216 21.675 207.249 22.325C207.299 22.9583 207.374 23.5167 207.474 24H206.099L205.599 22.025H205.474C205.091 22.675 204.574 23.2167 203.924 23.65C203.274 24.0833 202.449 24.3 201.449 24.3C200.782 24.3 200.191 24.2167 199.674 24.05C199.174 23.9 198.749 23.625 198.399 23.225C198.066 22.825 197.807 22.2917 197.624 21.625C197.457 20.9417 197.374 20.0833 197.374 19.05V11.5H199.374ZM219.45 13.425C218.95 13.2583 218.475 13.175 218.025 13.175C217.309 13.175 216.742 13.375 216.325 13.775C215.909 14.1583 215.65 14.65 215.55 15.25V24H213.55V11.5H214.95L215.325 13.025H215.425C215.742 12.4583 216.117 12.025 216.55 11.725C217 11.4083 217.567 11.25 218.25 11.25C218.734 11.25 219.275 11.3333 219.875 11.5L219.45 13.425ZM235.937 20.925C235.937 21.5083 236.037 21.925 236.237 22.175C236.437 22.425 236.72 22.55 237.087 22.55C237.303 22.55 237.537 22.5333 237.787 22.5C238.037 22.4667 238.32 22.3917 238.637 22.275L238.862 23.85C238.595 23.9833 238.22 24.0917 237.737 24.175C237.27 24.2583 236.862 24.3 236.512 24.3C235.762 24.3 235.145 24.0917 234.662 23.675C234.178 23.2417 233.937 22.5167 233.937 21.5V6.5H235.937V20.925ZM243.311 12.425C243.945 12.0417 244.678 11.7583 245.511 11.575C246.361 11.3917 247.245 11.3 248.161 11.3C249.028 11.3 249.72 11.4167 250.236 11.65C250.77 11.8833 251.17 12.1917 251.436 12.575C251.72 12.9417 251.903 13.35 251.986 13.8C252.086 14.25 252.136 14.7 252.136 15.15C252.136 16.15 252.111 17.125 252.061 18.075C252.011 19.025 251.986 19.925 251.986 20.775C251.986 21.3917 252.011 21.975 252.061 22.525C252.111 23.075 252.203 23.5833 252.336 24.05H250.861L250.336 22.3H250.211C250.061 22.5333 249.87 22.7667 249.636 23C249.42 23.2167 249.153 23.4167 248.836 23.6C248.52 23.7667 248.153 23.9083 247.736 24.025C247.32 24.1417 246.845 24.2 246.311 24.2C245.778 24.2 245.278 24.1167 244.811 23.95C244.361 23.7833 243.97 23.55 243.636 23.25C243.303 22.9333 243.036 22.5583 242.836 22.125C242.653 21.6917 242.561 21.2 242.561 20.65C242.561 19.9167 242.711 19.3083 243.011 18.825C243.311 18.325 243.728 17.9333 244.261 17.65C244.811 17.35 245.461 17.1417 246.211 17.025C246.978 16.8917 247.82 16.825 248.736 16.825C248.97 16.825 249.195 16.825 249.411 16.825C249.645 16.825 249.878 16.8417 250.111 16.875C250.161 16.375 250.186 15.925 250.186 15.525C250.186 14.6083 250.003 13.9667 249.636 13.6C249.27 13.2333 248.603 13.05 247.636 13.05C247.353 13.05 247.045 13.075 246.711 13.125C246.395 13.1583 246.061 13.2167 245.711 13.3C245.378 13.3667 245.053 13.4583 244.736 13.575C244.436 13.675 244.17 13.7917 243.936 13.925L243.311 12.425ZM246.861 22.45C247.328 22.45 247.745 22.3917 248.111 22.275C248.478 22.1417 248.795 21.9833 249.061 21.8C249.328 21.6 249.545 21.3833 249.711 21.15C249.895 20.9167 250.028 20.6917 250.111 20.475V18.4C249.878 18.3833 249.636 18.375 249.386 18.375C249.153 18.3583 248.92 18.35 248.686 18.35C248.17 18.35 247.661 18.3833 247.161 18.45C246.678 18.5 246.245 18.6083 245.861 18.775C245.495 18.925 245.195 19.1417 244.961 19.425C244.745 19.6917 244.636 20.0333 244.636 20.45C244.636 21.0333 244.845 21.5167 245.261 21.9C245.678 22.2667 246.211 22.45 246.861 22.45ZM263.914 20.6C263.914 20.1 263.764 19.7083 263.464 19.425C263.164 19.1417 262.789 18.9083 262.339 18.725C261.905 18.525 261.422 18.3417 260.889 18.175C260.372 17.9917 259.889 17.7667 259.439 17.5C259.005 17.2167 258.639 16.8583 258.339 16.425C258.039 15.9917 257.889 15.4083 257.889 14.675C257.889 13.475 258.23 12.6 258.914 12.05C259.597 11.4833 260.547 11.2 261.764 11.2C262.664 11.2 263.414 11.2833 264.014 11.45C264.63 11.6 265.164 11.7833 265.614 12L265.139 13.65C264.755 13.4667 264.289 13.3083 263.739 13.175C263.205 13.025 262.63 12.95 262.014 12.95C261.28 12.95 260.739 13.075 260.389 13.325C260.055 13.575 259.889 14.0083 259.889 14.625C259.889 15.0583 260.039 15.4 260.339 15.65C260.639 15.8833 261.005 16.1 261.439 16.3C261.889 16.4833 262.372 16.6667 262.889 16.85C263.422 17.0333 263.905 17.275 264.339 17.575C264.789 17.875 265.164 18.2583 265.464 18.725C265.764 19.175 265.914 19.775 265.914 20.525C265.914 21.0583 265.822 21.5583 265.639 22.025C265.472 22.4917 265.205 22.8917 264.839 23.225C264.472 23.5583 264.014 23.8167 263.464 24C262.93 24.2 262.297 24.3 261.564 24.3C260.614 24.3 259.805 24.2083 259.139 24.025C258.472 23.8417 257.914 23.625 257.464 23.375L258.064 21.675C258.447 21.8917 258.947 22.0917 259.564 22.275C260.18 22.4583 260.805 22.55 261.439 22.55C262.155 22.55 262.747 22.4083 263.214 22.125C263.68 21.8417 263.914 21.3333 263.914 20.6ZM269.786 11.5H271.736V9.025L273.736 8.45V11.5H277.136V13.25H273.736V20.175C273.736 21.0417 273.844 21.6583 274.061 22.025C274.278 22.375 274.644 22.55 275.161 22.55C275.594 22.55 275.961 22.5083 276.261 22.425C276.561 22.325 276.894 22.2 277.261 22.05L277.711 23.575C277.261 23.7917 276.769 23.9667 276.236 24.1C275.703 24.2333 275.128 24.3 274.511 24.3C273.494 24.3 272.778 24.0167 272.361 23.45C271.944 22.8667 271.736 21.9 271.736 20.55V13.25H269.786V11.5ZM1.925 56.5H3.3L3.675 58H3.775C4.15833 57.4167 4.65 56.975 5.25 56.675C5.86667 56.3583 6.56667 56.2 7.35 56.2C9.01667 56.2 10.2583 56.6917 11.075 57.675C11.8917 58.6583 12.3 60.2667 12.3 62.5C12.3 63.55 12.1583 64.5 11.875 65.35C11.6083 66.1833 11.225 66.8917 10.725 67.475C10.225 68.0583 9.61667 68.5083 8.9 68.825C8.2 69.1417 7.41667 69.3 6.55 69.3C5.93333 69.3 5.44167 69.2583 5.075 69.175C4.725 69.1083 4.34167 68.9833 3.925 68.8V74H1.925V56.5ZM6.975 57.95C6.125 57.95 5.45 58.175 4.95 58.625C4.46667 59.0583 4.125 59.725 3.925 60.625V66.825C4.225 67.0583 4.56667 67.2417 4.95 67.375C5.33333 67.4917 5.84167 67.55 6.475 67.55C7.625 67.55 8.53333 67.125 9.2 66.275C9.88333 65.4083 10.225 64.1417 10.225 62.475C10.225 61.7917 10.1667 61.175 10.05 60.625C9.93333 60.0583 9.74167 59.5833 9.475 59.2C9.225 58.8 8.89167 58.4917 8.475 58.275C8.075 58.0583 7.575 57.95 6.975 57.95ZM27.0754 68C26.5754 68.4 25.9421 68.7167 25.1754 68.95C24.4254 69.1833 23.6254 69.3 22.7754 69.3C21.8254 69.3 21.0004 69.15 20.3004 68.85C19.6004 68.5333 19.0254 68.0917 18.5754 67.525C18.1254 66.9417 17.7921 66.25 17.5754 65.45C17.3587 64.65 17.2504 63.75 17.2504 62.75C17.2504 60.6167 17.7254 58.9917 18.6754 57.875C19.6254 56.7583 20.9837 56.2 22.7504 56.2C23.3171 56.2 23.8837 56.2667 24.4504 56.4C25.0171 56.5167 25.5254 56.75 25.9754 57.1C26.4254 57.45 26.7921 57.95 27.0754 58.6C27.3587 59.2333 27.5004 60.075 27.5004 61.125C27.5004 61.675 27.4504 62.2833 27.3504 62.95H19.3254C19.3254 63.6833 19.4004 64.3333 19.5504 64.9C19.7004 65.4667 19.9337 65.95 20.2504 66.35C20.5671 66.7333 20.9754 67.0333 21.4754 67.25C21.9921 67.45 22.6171 67.55 23.3504 67.55C23.9171 67.55 24.4837 67.45 25.0504 67.25C25.6171 67.05 26.0421 66.8167 26.3254 66.55L27.0754 68ZM22.7754 57.95C21.7921 57.95 21.0004 58.2083 20.4004 58.725C19.8171 59.2417 19.4671 60.125 19.3504 61.375H25.5504C25.5504 60.1083 25.3087 59.225 24.8254 58.725C24.3421 58.2083 23.6587 57.95 22.7754 57.95ZM39.0457 58.425C38.5457 58.2583 38.0707 58.175 37.6207 58.175C36.904 58.175 36.3374 58.375 35.9207 58.775C35.504 59.1583 35.2457 59.65 35.1457 60.25V69H33.1457V56.5H34.5457L34.9207 58.025H35.0207C35.3374 57.4583 35.7124 57.025 36.1457 56.725C36.5957 56.4083 37.1624 56.25 37.8457 56.25C38.329 56.25 38.8707 56.3333 39.4707 56.5L39.0457 58.425ZM44.5668 56.5H46.5668V69H44.5668V56.5ZM44.1418 52.7C44.1418 52.3167 44.2668 51.9917 44.5168 51.725C44.7835 51.4417 45.1168 51.3 45.5168 51.3C45.9168 51.3 46.2585 51.4417 46.5418 51.725C46.8251 51.9917 46.9668 52.3167 46.9668 52.7C46.9668 53.0833 46.8251 53.4 46.5418 53.65C46.2585 53.9 45.9168 54.025 45.5168 54.025C45.1168 54.025 44.7835 53.9 44.5168 53.65C44.2668 53.4 44.1418 53.0833 44.1418 52.7ZM52.6313 62.75C52.6313 60.6333 53.0979 59.0167 54.0313 57.9C54.9813 56.7667 56.3396 56.2 58.1063 56.2C59.0396 56.2 59.8479 56.3583 60.5313 56.675C61.2313 56.975 61.8063 57.4167 62.2563 58C62.7063 58.5667 63.0396 59.2583 63.2563 60.075C63.4729 60.875 63.5813 61.7667 63.5813 62.75C63.5813 64.8667 63.1063 66.4917 62.1563 67.625C61.2229 68.7417 59.8729 69.3 58.1063 69.3C57.1729 69.3 56.3563 69.15 55.6563 68.85C54.9729 68.5333 54.4063 68.0917 53.9563 67.525C53.5063 66.9417 53.1729 66.25 52.9563 65.45C52.7396 64.6333 52.6313 63.7333 52.6313 62.75ZM54.7062 62.75C54.7062 63.3833 54.7646 63.9917 54.8813 64.575C55.0146 65.1583 55.2146 65.6667 55.4813 66.1C55.7479 66.5333 56.0979 66.8833 56.5313 67.15C56.9646 67.4167 57.4896 67.55 58.1063 67.55C60.3729 67.5667 61.5063 65.9667 61.5063 62.75C61.5063 62.1 61.4396 61.4833 61.3063 60.9C61.1896 60.3167 60.9979 59.8083 60.7313 59.375C60.4646 58.9417 60.1146 58.6 59.6813 58.35C59.2479 58.0833 58.7229 57.95 58.1063 57.95C55.8396 57.9333 54.7062 59.5333 54.7062 62.75ZM78.8346 64.7C78.8346 65.55 78.8429 66.325 78.8596 67.025C78.8762 67.7083 78.9512 68.3833 79.0846 69.05H77.7346L77.2346 67.275H77.1346C76.8012 67.8583 76.3179 68.3417 75.6846 68.725C75.0512 69.1083 74.3096 69.3 73.4596 69.3C71.7929 69.3 70.5512 68.775 69.7346 67.725C68.9346 66.675 68.5346 65.0333 68.5346 62.8C68.5346 60.6667 69.0346 59.05 70.0346 57.95C71.0512 56.8333 72.4429 56.275 74.2096 56.275C74.8262 56.275 75.3096 56.3083 75.6596 56.375C76.0262 56.4417 76.4179 56.55 76.8346 56.7V51.5H78.8346V64.7ZM73.7846 67.55C74.6346 67.55 75.3096 67.3333 75.8096 66.9C76.3096 66.45 76.6512 65.775 76.8346 64.875V58.675C76.5346 58.4417 76.1929 58.275 75.8096 58.175C75.4262 58.075 74.9179 58.025 74.2846 58.025C73.1346 58.025 72.2346 58.4083 71.5846 59.175C70.9346 59.925 70.6096 61.1333 70.6096 62.8C70.6096 63.4833 70.6596 64.1167 70.7596 64.7C70.8762 65.2833 71.0596 65.7833 71.3096 66.2C71.5596 66.6167 71.8846 66.95 72.2846 67.2C72.7012 67.4333 73.2012 67.55 73.7846 67.55Z" fill="#0C1120"/>
</svg>
