<svg width="35" height="35" viewBox="0 0 35 35" fill="none" xmlns="http://www.w3.org/2000/svg">
<path fill-rule="evenodd" clip-rule="evenodd" d="M16.5447 0.04375L17.5072 0C26.6801 0 34.1905 7.05833 34.9197 16.0271H32.7322C32.2218 10.5438 28.8093 5.92083 24.0405 3.66042L22.1009 5.6L16.5447 0.04375ZM2.26758 18.9583C2.79258 24.4417 6.20508 29.0792 10.9738 31.325L12.9134 29.4L18.4697 34.9562L17.5072 35C8.33424 35 0.823828 27.9417 0.0800781 18.9583H2.26758Z" fill="#F78161"/>
<path d="M23.66 13.005L18 7.345L12.34 13.005C9.22 16.125 9.22 21.195 12.34 24.315C13.9 25.875 15.95 26.655 18 26.655C20.05 26.655 22.1 25.875 23.66 24.315C26.78 21.195 26.78 16.125 23.66 13.005Z" fill="#F78161"/>
</svg>
