<svg width="70" height="70" viewBox="0 0 70 70" fill="none" xmlns="http://www.w3.org/2000/svg">
<path d="M62.0829 68.9602H7.875C7.875 68.9602 18.295 66.8202 12.6575 54.2133C7.01997 41.6063 10.9939 30.7179 14.6906 29.6562H55.2683C58.964 30.7179 62.9379 41.6063 57.3004 54.2133C51.6645 66.8202 62.0829 68.9602 62.0829 68.9602Z" fill="#F9D643"/>
<path d="M29.4974 29.6562V68.9602H7.875C7.875 68.9602 18.295 66.8202 12.6575 54.2133C7.01997 41.6063 10.9939 30.7179 14.6906 29.6562H29.4974Z" fill="#DDA22C"/>
<path d="M48.7772 58.278C48.7772 58.278 52.5722 63.9331 51.463 68.9602H18.4961C17.3869 63.9331 21.1819 58.278 21.1819 58.278" fill="#DAF3FE"/>
<path d="M25.9809 68.9602H18.4961C17.3868 63.9326 21.1824 58.2774 21.1824 58.2774H28.6672C28.6672 58.2774 24.8722 63.9326 25.9809 68.9602Z" fill="#9EC2CC"/>
<path d="M53.5875 31.5153V45.7923C53.5875 55.3428 46.3932 63.2121 37.1284 64.2765C36.4239 64.3582 35.7062 64.3999 34.9798 64.3999C24.703 64.3999 16.3706 56.0691 16.3706 45.7923V31.5153C16.3706 29.9072 16.5746 28.3478 16.9586 26.8594C19.0254 18.8362 26.311 12.9077 34.9798 12.9077C35.7062 12.9077 36.4239 12.9493 37.1284 13.031C41.4088 13.5234 45.2471 15.4679 48.1369 18.3582C51.5041 21.7249 53.5875 26.3766 53.5875 31.5153Z" fill="#EA9C68"/>
<path d="M53.5868 31.5147V45.7922C53.5868 55.3428 46.393 63.2121 37.1282 64.2765C27.8628 63.2121 20.6675 55.3428 20.6675 45.7922V31.5147C20.6675 21.9642 27.8628 14.0954 37.1282 13.031C41.4081 13.5229 45.2464 15.4674 48.1367 18.3577C51.5034 21.7244 53.5868 26.3766 53.5868 31.5147Z" fill="#FFBA89"/>
<path d="M52.9634 19.0231V20.15L16.9946 20.1489V19.0231C16.9946 18.574 17.0112 18.128 17.0443 17.6869C17.7279 8.37935 25.4958 1.03979 34.9785 1.03979C44.4623 1.03979 52.2318 8.38042 52.9148 17.6885C52.9469 18.1291 52.9634 18.574 52.9634 19.0231Z" fill="#7CA2D1"/>
<path d="M34.8562 1.04089C29.6721 1.16586 25.4915 9.16925 25.4915 19.0231V20.1489H16.9946V19.0231C16.9946 9.13187 24.9815 1.10605 34.8562 1.04089Z" fill="#507AA5"/>
<path d="M52.9634 19.0231V20.15L16.9946 20.1489V19.0231C16.9946 18.574 17.0112 18.1281 17.0443 17.6869C28.6077 13.3514 41.353 13.3514 52.9148 17.6885C52.9469 18.1291 52.9634 18.574 52.9634 19.0231Z" fill="#507AA5"/>
<path d="M53.5361 20.3689C41.6037 15.7157 28.3537 15.7157 16.4213 20.3689C15.375 20.777 14.6909 21.7911 14.6909 22.9137V29.6567C14.6909 31.542 16.55 32.8525 18.3321 32.2378C29.1163 28.5203 40.841 28.5203 51.6253 32.2378C53.408 32.8525 55.267 31.542 55.267 29.6567V22.9137C55.267 21.7911 54.5824 20.777 53.5361 20.3689Z" fill="#7CA2D1"/>
<path d="M24.4433 30.5481C22.3824 30.9833 20.3407 31.5462 18.3321 32.2378C16.5494 32.8531 14.6909 31.5436 14.6909 29.6567V22.9148C14.6909 21.7917 15.3756 20.777 16.4207 20.3695C19.796 19.0541 23.2764 18.1104 26.8028 17.5379C25.8298 17.8509 24.8636 18.1948 23.9055 18.5676C22.8604 18.9751 22.1757 19.9898 22.1757 21.1129V27.8548C22.1757 29.2509 23.1931 30.3302 24.4433 30.5481Z" fill="#507AA5"/>
<path d="M49.5322 47.2352C49.5322 46.2018 47.8568 45.3644 45.79 45.3644C43.7232 45.3644 42.0474 46.2018 42.0474 47.2352C42.0474 48.2686 43.7232 49.1066 45.79 49.1066C47.8568 49.1066 49.5322 48.2686 49.5322 47.2352Z" fill="#F95428"/>
<path d="M27.9096 47.2352C27.9096 46.2018 26.2343 45.3644 24.1675 45.3644C22.1001 45.3644 20.4248 46.2018 20.4248 47.2352C20.4248 48.2686 22.1001 49.1066 24.1675 49.1066C26.2343 49.1066 27.9096 48.2686 27.9096 47.2352Z" fill="#F95428"/>
<path d="M29.1218 50.344C28.7159 50.7504 28.7159 51.4084 29.1218 51.8143C30.7368 53.4293 32.8581 54.2368 34.9793 54.2368C37.1006 54.2368 39.2219 53.4293 40.8369 51.8143C41.2428 51.4084 41.2428 50.7504 40.8369 50.344C40.4305 49.9381 39.7725 49.9381 39.3666 50.344C36.9473 52.7633 33.0113 52.7633 30.5921 50.344C30.1862 49.9381 29.5277 49.9381 29.1218 50.344Z" fill="black"/>
<path d="M26.4542 40.7272C27.7316 40.7272 28.9322 41.225 29.8358 42.1281C30.0388 42.331 30.3047 42.4325 30.5707 42.4325C30.8367 42.4325 31.1031 42.331 31.3056 42.1281C31.712 41.7222 31.712 41.0637 31.3056 40.6578C30.0099 39.3622 28.2871 38.6481 26.4542 38.6481C24.6213 38.6481 22.8984 39.3622 21.6023 40.6578C21.1964 41.0637 21.1964 41.7222 21.6023 42.1281C22.0087 42.5339 22.6666 42.5339 23.0725 42.1281C23.9756 41.2244 25.1767 40.7272 26.4542 40.7272Z" fill="black"/>
<path d="M40.1223 42.1281C41.9867 40.2637 45.0207 40.2631 46.8851 42.1281C47.088 42.331 47.3545 42.4325 47.6205 42.4325C47.8865 42.4325 48.1524 42.331 48.3554 42.1281C48.7618 41.7222 48.7618 41.0637 48.3554 40.6578C45.6803 37.9827 41.3277 37.9822 38.6521 40.6578C38.2462 41.0637 38.2462 41.7222 38.6521 42.1281C39.058 42.5339 39.7159 42.5339 40.1223 42.1281Z" fill="black"/>
<path d="M62.2963 67.9428C62.2626 67.9359 58.9045 67.1914 57.4086 64.2493C56.1883 61.8497 56.4713 58.6155 58.2508 54.6373C62.3491 45.4713 61.5326 37.3087 59.4011 32.7265C58.5547 30.9054 57.4753 29.6044 56.3063 28.9705V22.9143C56.3063 21.4034 55.384 20.0208 54.0034 19.4397V19.0237C54.0034 15.9795 53.3054 13.0705 51.9291 10.3778C51.668 9.86671 51.0415 9.66377 50.5304 9.92546C50.0194 10.1866 49.8164 10.8131 50.0776 11.3242C51.2498 13.6174 51.8672 16.0874 51.919 18.6717C40.9179 14.8858 29.04 14.8858 18.0389 18.6712C18.2269 9.4902 25.7534 2.07909 34.9787 2.07909C40.1548 2.07909 44.9805 4.4001 48.218 8.44666C48.5769 8.89526 49.2311 8.9679 49.6792 8.60901C50.1278 8.25066 50.2004 7.59644 49.8415 7.14783C46.2072 2.60513 40.7898 0 34.9787 0C24.4893 0 15.955 8.53371 15.955 19.0231V19.4386C14.5739 20.0202 13.6511 21.4029 13.6511 22.9143V28.9684C12.6348 29.5163 11.6943 30.5625 10.8991 32.0435C8.90172 35.7605 7.68728 42.6536 10.2684 50.8519C10.4083 51.2957 10.8179 51.5798 11.2601 51.5798C11.3632 51.5798 11.4684 51.5643 11.5725 51.5312C12.12 51.3587 12.4244 50.7755 12.2519 50.2276C10.7586 45.4836 9.98746 38.1328 12.7304 33.0277C13.124 32.2955 13.5678 31.6926 14.0105 31.2717C14.2797 31.8421 14.693 32.342 15.2308 32.7254C15.2634 32.7489 15.2981 32.7687 15.3312 32.7906V45.7922C15.3312 50.5753 17.0498 54.9636 19.9012 58.3741C18.9901 59.9314 16.9526 63.9187 17.2907 67.9209H12.2043C13.0193 67.2448 13.8033 66.362 14.3908 65.217C15.924 62.2268 15.6602 58.3816 13.6062 53.7881C13.3723 53.2642 12.7571 53.0293 12.2332 53.2637C11.7087 53.4982 11.4737 54.1129 11.7082 54.6373C13.4871 58.6155 13.7707 61.8492 12.5504 64.2493C11.0545 67.1914 7.69636 67.9359 7.66645 67.9423C7.14361 68.0496 6.78739 68.5351 6.84133 69.0654C6.89527 69.5963 7.34228 70 7.8758 70H62.0837C62.6156 70 63.06 69.5979 63.1155 69.0686C63.1711 68.5394 62.8164 68.0534 62.2963 67.9428ZM15.7302 22.9143C15.7302 22.2205 16.1596 21.5866 16.7988 21.3377C28.5225 16.7662 41.4349 16.7662 53.1585 21.3377C53.7978 21.5866 54.2272 22.2205 54.2272 22.9143V29.6568C54.2272 30.2106 53.9692 30.7115 53.5196 31.0325C53.0635 31.3577 52.4968 31.4389 51.9639 31.2552C46.4871 29.3673 40.7332 28.4231 34.9787 28.4231C29.2242 28.4231 23.4703 29.3673 17.9935 31.2552C17.4611 31.4389 16.8944 31.3577 16.4383 31.0325C15.9881 30.7115 15.7302 30.2106 15.7302 29.6568V22.9143ZM17.4103 33.4272C17.4178 33.4272 17.4258 33.4277 17.4333 33.4277C17.8499 33.4277 18.268 33.3599 18.6712 33.2211C29.1874 29.5959 40.77 29.5959 51.2861 33.2211C51.6968 33.3626 52.1235 33.4288 52.5476 33.4261V45.7922C52.5476 55.4795 44.6665 63.3601 34.9798 63.3601C25.292 63.3601 17.4103 55.4795 17.4103 45.7922V33.4272ZM50.5801 67.9209H36.019V65.4119C40.8741 65.1577 45.2678 63.1326 48.5651 59.972C49.4554 61.6265 50.9064 64.865 50.5801 67.9209ZM21.3933 59.9725C24.6911 63.1326 29.0848 65.1577 33.9399 65.4119V67.9209H19.3789C19.0526 64.8656 20.5031 61.6265 21.3933 59.9725ZM52.6683 67.9209C53.0063 63.9176 50.9678 59.9303 50.0573 58.3736C52.9081 54.9631 54.6267 50.5747 54.6267 45.7922V32.7922C54.6598 32.7698 54.694 32.7489 54.7265 32.7254C55.2654 32.3409 55.6793 31.8405 55.9485 31.2685C56.4056 31.6969 56.9621 32.4114 57.5159 33.6029C60.4746 39.9651 58.7384 48.4529 56.3527 53.7881C54.2988 58.381 54.0349 62.2268 55.5682 65.217C56.1551 66.362 56.9397 67.2448 57.7546 67.9209H52.6683Z" fill="black"/>
</svg>
