<svg width="35" height="35" viewBox="0 0 35 35" fill="none" xmlns="http://www.w3.org/2000/svg">
<g id="language_24px">
<path id="icon/action/language_24px" fill-rule="evenodd" clip-rule="evenodd" d="M2.9165 17.5C2.9165 9.45 9.43525 2.91667 17.4853 2.91667C25.5498 2.91667 32.0832 9.45 32.0832 17.5C32.0832 25.55 25.5498 32.0833 17.4853 32.0833C9.43525 32.0833 2.9165 25.55 2.9165 17.5ZM23.2894 11.6667H27.5915C26.1915 9.26042 23.9602 7.39375 21.2769 6.475C22.1519 8.09375 22.8227 9.84375 23.2894 11.6667ZM17.4998 5.89166C18.7102 7.64167 19.6582 9.58125 20.2852 11.6667H14.7144C15.3415 9.58125 16.2894 7.64167 17.4998 5.89166ZM5.83318 17.5C5.83318 18.5062 5.97901 19.4833 6.21234 20.4167H11.1415C11.0248 19.4542 10.9373 18.4917 10.9373 17.5C10.9373 16.5083 11.0248 15.5458 11.1415 14.5833H6.21234C5.97901 15.5167 5.83318 16.4937 5.83318 17.5ZM7.40818 23.3333H11.7103C12.1769 25.1563 12.8478 26.9063 13.7228 28.525C11.0394 27.6063 8.80818 25.7542 7.40818 23.3333ZM7.40818 11.6667H11.7103C12.1769 9.84375 12.8478 8.09375 13.7228 6.475C11.0394 7.39375 8.80818 9.24583 7.40818 11.6667ZM17.4998 29.1083C16.2894 27.3583 15.3415 25.4188 14.7144 23.3333H20.2852C19.6582 25.4188 18.7102 27.3583 17.4998 29.1083ZM14.0873 20.4167H20.9123C21.0436 19.4542 21.1457 18.4917 21.1457 17.5C21.1457 16.5083 21.0436 15.5312 20.9123 14.5833H14.0873C13.9561 15.5312 13.854 16.5083 13.854 17.5C13.854 18.4917 13.9561 19.4542 14.0873 20.4167ZM21.2769 28.525C22.1519 26.9063 22.8227 25.1563 23.2894 23.3333H27.5915C26.1915 25.7396 23.9602 27.6063 21.2769 28.525ZM24.0623 17.5C24.0623 18.4917 23.9748 19.4542 23.8582 20.4167H28.7873C29.0207 19.4833 29.1665 18.5062 29.1665 17.5C29.1665 16.4937 29.0207 15.5167 28.7873 14.5833H23.8582C23.9748 15.5458 24.0623 16.5083 24.0623 17.5Z" fill="#F78161"/>
</g>
</svg>
