<svg width="122" height="34" viewBox="0 0 122 34" fill="none" xmlns="http://www.w3.org/2000/svg">
<path d="M0.20507 16.9C0.20507 11.5333 1.38574 7.40867 3.74707 4.526C6.1084 1.61266 9.48174 0.155998 13.8671 0.155998C16.1671 0.155998 18.1757 0.554665 19.8931 1.352C21.6104 2.14933 23.0364 3.284 24.1711 4.756C25.3057 6.228 26.1491 7.99133 26.7011 10.046C27.2531 12.1007 27.5291 14.3853 27.5291 16.9C27.5291 22.2667 26.3331 26.4067 23.9411 29.32C21.5797 32.2027 18.2217 33.644 13.8671 33.644C11.5364 33.644 9.5124 33.2453 7.79507 32.448C6.07774 31.6507 4.65174 30.516 3.51707 29.044C2.41307 27.572 1.58507 25.8087 1.03307 23.754C0.48107 21.6993 0.20507 19.4147 0.20507 16.9ZM6.82907 16.9C6.82907 18.5253 6.96707 20.028 7.24307 21.408C7.51907 22.7573 7.93307 23.9227 8.48507 24.904C9.06774 25.8853 9.80374 26.652 10.6931 27.204C11.5824 27.756 12.6404 28.032 13.8671 28.032C16.1057 28.032 17.8384 27.158 19.0651 25.41C20.2917 23.662 20.9051 20.8253 20.9051 16.9C20.9051 15.336 20.7671 13.8793 20.4911 12.53C20.2457 11.1807 19.8471 10 19.2951 8.988C18.7431 7.976 18.0224 7.194 17.1331 6.642C16.2437 6.05933 15.1551 5.768 13.8671 5.768C11.6284 5.768 9.89574 6.67267 8.66907 8.482C7.4424 10.2607 6.82907 13.0667 6.82907 16.9ZM45.0141 22.052L45.7961 25.594H46.0261L46.6701 21.96L50.5801 10H57.0201L47.4061 33.23H43.7721L33.7901 10H40.7361L45.0141 22.052ZM70.248 10V23.064C70.248 24.9347 70.4626 26.284 70.892 27.112C71.352 27.94 72.226 28.354 73.514 28.354C74.6486 28.354 75.584 28.0167 76.32 27.342C77.0866 26.6673 77.654 25.8393 78.022 24.858V10H84.002V26.008C84.002 27.2653 84.0633 28.5073 84.186 29.734C84.3086 30.93 84.4926 32.0187 84.738 33H80.23L79.172 29.596H78.988C78.2826 30.7613 77.3013 31.7273 76.044 32.494C74.7866 33.2607 73.2993 33.644 71.582 33.644C70.4166 33.644 69.374 33.4907 68.454 33.184C67.534 32.8773 66.7673 32.3713 66.154 31.666C65.5406 30.9607 65.0653 30.01 64.728 28.814C64.4213 27.618 64.268 26.1153 64.268 24.306V10H70.248ZM100.934 25.272C100.934 26.3453 101.072 27.1273 101.348 27.618C101.624 28.1087 102.069 28.354 102.682 28.354C103.05 28.354 103.403 28.3233 103.74 28.262C104.108 28.2007 104.553 28.0627 105.074 27.848L105.718 32.54C105.227 32.7853 104.476 33.0307 103.464 33.276C102.452 33.5213 101.409 33.644 100.336 33.644C98.5879 33.644 97.2539 33.2453 96.3339 32.448C95.4139 31.62 94.9539 30.2707 94.9539 28.4V0.799998H100.934V25.272ZM114.317 10H120.297V33H114.317V10ZM113.443 3.514C113.443 2.62467 113.765 1.87333 114.409 1.26C115.084 0.615998 116.004 0.293999 117.169 0.293999C118.335 0.293999 119.27 0.615998 119.975 1.26C120.711 1.87333 121.079 2.62467 121.079 3.514C121.079 4.40333 120.711 5.15467 119.975 5.768C119.27 6.35067 118.335 6.642 117.169 6.642C116.004 6.642 115.084 6.35067 114.409 5.768C113.765 5.15467 113.443 4.40333 113.443 3.514Z" fill="#F78161"/>
</svg>
