<svg width="260" height="75" viewBox="0 0 260 75" fill="none" xmlns="http://www.w3.org/2000/svg">
<path d="M14.402 14.038H5.698V24H1.04V0.199998H5.698V9.89H14.402V0.199998H19.06V24H14.402V14.038ZM25.6685 15.5C25.6685 12.6213 26.3712 10.4113 27.7765 8.87C29.1818 7.306 31.1538 6.524 33.6925 6.524C35.0525 6.524 36.2312 6.73933 37.2285 7.17C38.2258 7.60067 39.0532 8.21267 39.7105 9.006C40.3678 9.77667 40.8552 10.7173 41.1725 11.828C41.5125 12.9387 41.6825 14.1627 41.6825 15.5C41.6825 18.3787 40.9798 20.6 39.5745 22.164C38.1918 23.7053 36.2312 24.476 33.6925 24.476C32.3325 24.476 31.1538 24.2607 30.1565 23.83C29.1592 23.3993 28.3205 22.7987 27.6405 22.028C26.9832 21.2347 26.4845 20.2827 26.1445 19.172C25.8272 18.0613 25.6685 16.8373 25.6685 15.5ZM30.2245 15.5C30.2245 16.248 30.2925 16.9393 30.4285 17.574C30.5645 18.2087 30.7685 18.764 31.0405 19.24C31.3125 19.716 31.6638 20.09 32.0945 20.362C32.5478 20.6113 33.0805 20.736 33.6925 20.736C34.8485 20.736 35.7098 20.3167 36.2765 19.478C36.8432 18.6393 37.1265 17.3133 37.1265 15.5C37.1265 13.936 36.8658 12.678 36.3445 11.726C35.8232 10.7513 34.9392 10.264 33.6925 10.264C32.6045 10.264 31.7545 10.672 31.1425 11.488C30.5305 12.304 30.2245 13.6413 30.2245 15.5ZM60.1554 7L63.2494 15.704L63.8614 18.526H63.9974L64.4734 15.67L66.6494 7H70.6954L65.4594 24.17H62.1954L58.7614 14.65L58.3194 12.508H58.1494L57.7414 14.684L54.4774 24.17H51.1114L45.6374 7H50.4314L52.9134 15.534L53.3214 18.56H53.4914L54.0694 15.5L56.8914 7H60.1554ZM91.4768 18.288C91.4768 19.0813 91.5788 19.6593 91.7828 20.022C91.9868 20.3847 92.3155 20.566 92.7688 20.566C93.0408 20.566 93.3015 20.5433 93.5508 20.498C93.8228 20.4527 94.1515 20.3507 94.5368 20.192L95.0128 23.66C94.6501 23.8413 94.0948 24.0227 93.3468 24.204C92.5988 24.3853 91.8281 24.476 91.0348 24.476C89.7428 24.476 88.7568 24.1813 88.0768 23.592C87.3968 22.98 87.0568 21.9827 87.0568 20.6V0.199998H91.4768V18.288ZM99.499 15.5C99.499 12.6213 100.202 10.4113 101.607 8.87C103.012 7.306 104.984 6.524 107.523 6.524C108.883 6.524 110.062 6.73933 111.059 7.17C112.056 7.60067 112.884 8.21267 113.541 9.006C114.198 9.77667 114.686 10.7173 115.003 11.828C115.343 12.9387 115.513 14.1627 115.513 15.5C115.513 18.3787 114.81 20.6 113.405 22.164C112.022 23.7053 110.062 24.476 107.523 24.476C106.163 24.476 104.984 24.2607 103.987 23.83C102.99 23.3993 102.151 22.7987 101.471 22.028C100.814 21.2347 100.315 20.2827 99.975 19.172C99.6576 18.0613 99.499 16.8373 99.499 15.5ZM104.055 15.5C104.055 16.248 104.123 16.9393 104.259 17.574C104.395 18.2087 104.599 18.764 104.871 19.24C105.143 19.716 105.494 20.09 105.925 20.362C106.378 20.6113 106.911 20.736 107.523 20.736C108.679 20.736 109.54 20.3167 110.107 19.478C110.674 18.6393 110.957 17.3133 110.957 15.5C110.957 13.936 110.696 12.678 110.175 11.726C109.654 10.7513 108.77 10.264 107.523 10.264C106.435 10.264 105.585 10.672 104.973 11.488C104.361 12.304 104.055 13.6413 104.055 15.5ZM132.381 24V14.344C132.381 12.9613 132.177 11.964 131.769 11.352C131.383 10.74 130.715 10.434 129.763 10.434C128.924 10.434 128.21 10.6833 127.621 11.182C127.054 11.658 126.646 12.2587 126.397 12.984V24H121.977V7H125.479L125.989 9.244H126.125C126.646 8.51867 127.337 7.884 128.199 7.34C129.06 6.796 130.171 6.524 131.531 6.524C132.369 6.524 133.117 6.63733 133.775 6.864C134.432 7.09067 134.987 7.46467 135.441 7.986C135.894 8.50733 136.234 9.22133 136.461 10.128C136.687 11.012 136.801 12.1113 136.801 13.426V24H132.381ZM158.286 24C158.286 26.4707 157.617 28.284 156.28 29.44C154.943 30.6187 153.073 31.208 150.67 31.208C149.038 31.208 147.746 31.0947 146.794 30.868C145.865 30.6413 145.162 30.4033 144.686 30.154L145.604 26.652C146.125 26.856 146.726 27.06 147.406 27.264C148.109 27.468 148.97 27.57 149.99 27.57C151.531 27.57 152.574 27.23 153.118 26.55C153.685 25.8927 153.968 24.9633 153.968 23.762V22.674H153.832C153.039 23.7393 151.633 24.272 149.616 24.272C147.417 24.272 145.774 23.592 144.686 22.232C143.621 20.872 143.088 18.7413 143.088 15.84C143.088 12.8027 143.813 10.502 145.264 8.938C146.715 7.374 148.823 6.592 151.588 6.592C153.039 6.592 154.331 6.694 155.464 6.898C156.62 7.102 157.561 7.34 158.286 7.612V24ZM150.806 20.736C151.667 20.736 152.325 20.5433 152.778 20.158C153.254 19.7727 153.617 19.1947 153.866 18.424V10.774C153.163 10.4793 152.291 10.332 151.248 10.332C150.115 10.332 149.231 10.7627 148.596 11.624C147.961 12.4627 147.644 13.8113 147.644 15.67C147.644 17.3247 147.916 18.5827 148.46 19.444C149.004 20.3053 149.786 20.736 150.806 20.736ZM176.943 11.5H178.943V24H176.943V11.5ZM176.518 7.7C176.518 7.31667 176.643 6.99167 176.893 6.725C177.159 6.44167 177.493 6.3 177.893 6.3C178.293 6.3 178.634 6.44167 178.918 6.725C179.201 6.99167 179.343 7.31667 179.343 7.7C179.343 8.08333 179.201 8.4 178.918 8.65C178.634 8.9 178.293 9.025 177.893 9.025C177.493 9.025 177.159 8.9 176.893 8.65C176.643 8.4 176.518 8.08333 176.518 7.7ZM191.207 20.6C191.207 20.1 191.057 19.7083 190.757 19.425C190.457 19.1417 190.082 18.9083 189.632 18.725C189.199 18.525 188.715 18.3417 188.182 18.175C187.665 17.9917 187.182 17.7667 186.732 17.5C186.299 17.2167 185.932 16.8583 185.632 16.425C185.332 15.9917 185.182 15.4083 185.182 14.675C185.182 13.475 185.524 12.6 186.207 12.05C186.89 11.4833 187.84 11.2 189.057 11.2C189.957 11.2 190.707 11.2833 191.307 11.45C191.924 11.6 192.457 11.7833 192.907 12L192.432 13.65C192.049 13.4667 191.582 13.3083 191.032 13.175C190.499 13.025 189.924 12.95 189.307 12.95C188.574 12.95 188.032 13.075 187.682 13.325C187.349 13.575 187.182 14.0083 187.182 14.625C187.182 15.0583 187.332 15.4 187.632 15.65C187.932 15.8833 188.299 16.1 188.732 16.3C189.182 16.4833 189.665 16.6667 190.182 16.85C190.715 17.0333 191.199 17.275 191.632 17.575C192.082 17.875 192.457 18.2583 192.757 18.725C193.057 19.175 193.207 19.775 193.207 20.525C193.207 21.0583 193.115 21.5583 192.932 22.025C192.765 22.4917 192.499 22.8917 192.132 23.225C191.765 23.5583 191.307 23.8167 190.757 24C190.224 24.2 189.59 24.3 188.857 24.3C187.907 24.3 187.099 24.2083 186.432 24.025C185.765 23.8417 185.207 23.625 184.757 23.375L185.357 21.675C185.74 21.8917 186.24 22.0917 186.857 22.275C187.474 22.4583 188.099 22.55 188.732 22.55C189.449 22.55 190.04 22.4083 190.507 22.125C190.974 21.8417 191.207 21.3333 191.207 20.6ZM211.228 19.6L211.928 22H212.053L212.603 19.575L215.028 11.5H217.053L213.353 22.725C213.069 23.5417 212.786 24.3333 212.503 25.1C212.236 25.8667 211.936 26.55 211.603 27.15C211.269 27.75 210.894 28.225 210.478 28.575C210.061 28.9417 209.578 29.125 209.028 29.125C208.428 29.125 207.936 29.0417 207.553 28.875L207.903 27.15C208.119 27.2333 208.328 27.275 208.528 27.275C208.994 27.275 209.444 27.025 209.878 26.525C210.311 26.0417 210.669 25.2 210.953 24L205.928 11.5H208.228L211.228 19.6ZM220.73 17.75C220.73 15.6333 221.196 14.0167 222.13 12.9C223.08 11.7667 224.438 11.2 226.205 11.2C227.138 11.2 227.946 11.3583 228.63 11.675C229.33 11.975 229.905 12.4167 230.355 13C230.805 13.5667 231.138 14.2583 231.355 15.075C231.571 15.875 231.68 16.7667 231.68 17.75C231.68 19.8667 231.205 21.4917 230.255 22.625C229.321 23.7417 227.971 24.3 226.205 24.3C225.271 24.3 224.455 24.15 223.755 23.85C223.071 23.5333 222.505 23.0917 222.055 22.525C221.605 21.9417 221.271 21.25 221.055 20.45C220.838 19.6333 220.73 18.7333 220.73 17.75ZM222.805 17.75C222.805 18.3833 222.863 18.9917 222.98 19.575C223.113 20.1583 223.313 20.6667 223.58 21.1C223.846 21.5333 224.196 21.8833 224.63 22.15C225.063 22.4167 225.588 22.55 226.205 22.55C228.471 22.5667 229.605 20.9667 229.605 17.75C229.605 17.1 229.538 16.4833 229.405 15.9C229.288 15.3167 229.096 14.8083 228.83 14.375C228.563 13.9417 228.213 13.6 227.78 13.35C227.346 13.0833 226.821 12.95 226.205 12.95C223.938 12.9333 222.805 14.5333 222.805 17.75ZM239.133 11.5V18.625C239.133 19.275 239.166 19.85 239.233 20.35C239.316 20.8333 239.45 21.2417 239.633 21.575C239.816 21.8917 240.066 22.1333 240.383 22.3C240.7 22.4667 241.1 22.55 241.583 22.55C242.033 22.55 242.433 22.4833 242.783 22.35C243.133 22.2 243.441 22 243.708 21.75C243.991 21.5 244.233 21.2167 244.433 20.9C244.65 20.5667 244.825 20.2167 244.958 19.85V11.5H246.958V20.45C246.958 21.05 246.975 21.675 247.008 22.325C247.058 22.9583 247.133 23.5167 247.233 24H245.858L245.358 22.025H245.233C244.85 22.675 244.333 23.2167 243.683 23.65C243.033 24.0833 242.208 24.3 241.208 24.3C240.541 24.3 239.95 24.2167 239.433 24.05C238.933 23.9 238.508 23.625 238.158 23.225C237.825 22.825 237.566 22.2917 237.383 21.625C237.216 20.9417 237.133 20.0833 237.133 19.05V11.5H239.133ZM259.21 13.425C258.71 13.2583 258.235 13.175 257.785 13.175C257.068 13.175 256.501 13.375 256.085 13.775C255.668 14.1583 255.41 14.65 255.31 15.25V24H253.31V11.5H254.71L255.085 13.025H255.185C255.501 12.4583 255.876 12.025 256.31 11.725C256.76 11.4083 257.326 11.25 258.01 11.25C258.493 11.25 259.035 11.3333 259.635 11.5L259.21 13.425ZM9.45 68.175C8.95 68.5417 8.35833 68.8167 7.675 69C6.99167 69.2 6.275 69.3 5.525 69.3C4.55833 69.3 3.74167 69.15 3.075 68.85C2.40833 68.5333 1.85833 68.0917 1.425 67.525C1.00833 66.9417 0.7 66.25 0.5 65.45C0.316667 64.6333 0.225 63.7333 0.225 62.75C0.225 60.6333 0.691667 59.0167 1.625 57.9C2.55833 56.7667 3.9 56.2 5.65 56.2C6.45 56.2 7.125 56.2667 7.675 56.4C8.24167 56.5167 8.75 56.6917 9.2 56.925L8.625 58.65C8.24167 58.4333 7.81667 58.2667 7.35 58.15C6.88333 58.0167 6.38333 57.95 5.85 57.95C3.48333 57.95 2.3 59.55 2.3 62.75C2.3 63.3833 2.35833 63.9917 2.475 64.575C2.60833 65.1417 2.81667 65.65 3.1 66.1C3.4 66.5333 3.78333 66.8833 4.25 67.15C4.73333 67.4167 5.325 67.55 6.025 67.55C6.625 67.55 7.15833 67.4583 7.625 67.275C8.10833 67.0917 8.5 66.8833 8.8 66.65L9.45 68.175ZM18.0863 64.6L18.7863 67H18.9113L19.4613 64.575L21.8863 56.5H23.9113L20.2113 67.725C19.928 68.5417 19.6447 69.3333 19.3613 70.1C19.0947 70.8667 18.7947 71.55 18.4613 72.15C18.128 72.75 17.753 73.225 17.3363 73.575C16.9197 73.9417 16.4363 74.125 15.8863 74.125C15.2863 74.125 14.7947 74.0417 14.4113 73.875L14.7613 72.15C14.978 72.2333 15.1863 72.275 15.3863 72.275C15.853 72.275 16.303 72.025 16.7363 71.525C17.1697 71.0417 17.528 70.2 17.8113 69L12.7863 56.5H15.0863L18.0863 64.6ZM36.8133 68.175C36.3133 68.5417 35.7216 68.8167 35.0383 69C34.3549 69.2 33.6383 69.3 32.8883 69.3C31.9216 69.3 31.1049 69.15 30.4383 68.85C29.7716 68.5333 29.2216 68.0917 28.7883 67.525C28.3716 66.9417 28.0633 66.25 27.8633 65.45C27.6799 64.6333 27.5883 63.7333 27.5883 62.75C27.5883 60.6333 28.0549 59.0167 28.9883 57.9C29.9216 56.7667 31.2633 56.2 33.0133 56.2C33.8133 56.2 34.4883 56.2667 35.0383 56.4C35.6049 56.5167 36.1133 56.6917 36.5633 56.925L35.9883 58.65C35.6049 58.4333 35.1799 58.2667 34.7133 58.15C34.2466 58.0167 33.7466 57.95 33.2133 57.95C30.8466 57.95 29.6633 59.55 29.6633 62.75C29.6633 63.3833 29.7216 63.9917 29.8383 64.575C29.9716 65.1417 30.1799 65.65 30.4633 66.1C30.7633 66.5333 31.1466 66.8833 31.6133 67.15C32.0966 67.4167 32.6883 67.55 33.3883 67.55C33.9883 67.55 34.5216 67.4583 34.9883 67.275C35.4716 67.0917 35.8633 66.8833 36.1633 66.65L36.8133 68.175ZM44.2926 65.925C44.2926 66.5083 44.3926 66.925 44.5926 67.175C44.7926 67.425 45.0759 67.55 45.4426 67.55C45.6592 67.55 45.8926 67.5333 46.1426 67.5C46.3926 67.4667 46.6759 67.3917 46.9926 67.275L47.2176 68.85C46.9509 68.9833 46.5759 69.0917 46.0926 69.175C45.6259 69.2583 45.2176 69.3 44.8676 69.3C44.1176 69.3 43.5009 69.0917 43.0176 68.675C42.5342 68.2417 42.2926 67.5167 42.2926 66.5V51.5H44.2926V65.925ZM60.9924 68C60.4924 68.4 59.8591 68.7167 59.0924 68.95C58.3424 69.1833 57.5424 69.3 56.6924 69.3C55.7424 69.3 54.9174 69.15 54.2174 68.85C53.5174 68.5333 52.9424 68.0917 52.4924 67.525C52.0424 66.9417 51.709 66.25 51.4924 65.45C51.2757 64.65 51.1674 63.75 51.1674 62.75C51.1674 60.6167 51.6424 58.9917 52.5924 57.875C53.5424 56.7583 54.9007 56.2 56.6674 56.2C57.234 56.2 57.8007 56.2667 58.3674 56.4C58.934 56.5167 59.4424 56.75 59.8924 57.1C60.3424 57.45 60.709 57.95 60.9924 58.6C61.2757 59.2333 61.4174 60.075 61.4174 61.125C61.4174 61.675 61.3674 62.2833 61.2674 62.95H53.2424C53.2424 63.6833 53.3174 64.3333 53.4674 64.9C53.6174 65.4667 53.8507 65.95 54.1674 66.35C54.484 66.7333 54.8924 67.0333 55.3924 67.25C55.909 67.45 56.534 67.55 57.2674 67.55C57.834 67.55 58.4007 67.45 58.9674 67.25C59.534 67.05 59.959 66.8167 60.2424 66.55L60.9924 68ZM56.6924 57.95C55.709 57.95 54.9174 58.2083 54.3174 58.725C53.734 59.2417 53.384 60.125 53.2674 61.375H59.4674C59.4674 60.1083 59.2257 59.225 58.7424 58.725C58.259 58.2083 57.5757 57.95 56.6924 57.95Z" fill="#0C1120"/>
</svg>
