<svg width="279" height="202" viewBox="0 0 279 202" fill="none" xmlns="http://www.w3.org/2000/svg">
<path d="M312.133 185.489C289.025 185.393 266.165 180.302 244.856 170.508C223.548 160.715 204.21 146.41 187.945 128.411C171.681 110.411 158.809 89.0697 150.064 65.6047C141.319 42.1397 136.873 17.0107 136.979 -8.34747L312.942 -7.6102L312.133 185.489Z" fill="#F78161"/>
<path d="M242.952 -7.02633C242.854 14.3171 231.562 34.735 211.559 49.7358C191.556 64.7366 164.482 73.0914 136.292 72.9622C108.101 72.8331 81.1045 64.2307 61.24 49.0473C41.3756 33.8639 30.2708 13.3434 30.3686 -8.00001L136.66 -7.51317L242.952 -7.02633Z" fill="#F54C64" fill-opacity="0.5"/>
</svg>
