<svg width="25" height="25" viewBox="0 0 25 25" fill="none" xmlns="http://www.w3.org/2000/svg">
<path d="M15.2015 18.4865C14.9312 19.3977 14.2135 20.1155 13.3063 20.3856V24.5349H11.6934V20.3856C10.7861 20.1155 10.0685 19.3977 9.79814 18.4865C9.72568 18.2484 9.68118 17.9986 9.67725 17.7363C10.403 18.45 11.399 18.8897 12.4998 18.8897C13.6006 18.8897 14.5967 18.45 15.3224 17.7363C15.3185 17.9986 15.274 18.2484 15.2015 18.4865Z" fill="#A0D468"/>
<path d="M22.5806 5.98633C22.3105 7.5951 22.1774 9.22414 22.1774 10.8571V11.9136C22.1774 12.6073 22.0685 13.2926 21.8549 13.9459C21.6452 14.5992 21.3306 15.2202 20.9193 15.7807C19.6814 17.4783 17.7057 18.4863 15.6049 18.4863H15.2017C15.2741 18.2483 15.3186 17.9984 15.3225 17.7362L15.3507 17.708C15.8065 17.2524 16.1532 16.688 16.3507 16.0548L16.5322 16.067H16.7701C17.3347 16.067 17.8831 15.9419 18.379 15.708C18.8789 15.4783 19.3225 15.1355 19.6854 14.7039C20.254 14.0225 20.5645 13.1637 20.5645 12.2726C20.5645 10.7766 20.379 9.28459 20.0162 7.829L19.9193 7.44586C20.6653 6.73627 21.5806 6.23224 22.5806 5.98633Z" fill="#F54C64"/>
<path d="M7.62101 18.2363C6.21385 17.8451 4.95968 16.9862 4.08077 15.7807C3.66947 15.2202 3.35485 14.5992 3.14516 13.9459C2.93154 13.2926 2.82266 12.6073 2.82266 11.9136V10.8571C2.82266 9.22414 2.68956 7.5951 2.41943 5.98633C3.41943 6.23224 4.33476 6.73627 5.08076 7.44586L4.98389 7.829C4.62103 9.28459 4.43556 10.7766 4.43556 12.2726C4.43556 13.1637 4.74605 14.0225 5.31467 14.7039C5.67753 15.1355 6.12112 15.4783 6.62102 15.708C7.11697 15.9419 7.66531 16.067 8.22998 16.067H8.46782L8.71373 16.2444C8.91948 16.8128 9.25419 17.3209 9.6775 17.7362C9.68144 17.9984 9.72593 18.2483 9.79839 18.4863H9.39516C8.79032 18.4863 8.19356 18.4017 7.62101 18.2363Z" fill="#F54C64"/>
<path d="M14.4232 3.43805C14.7014 3.82927 14.9554 4.23643 15.1812 4.6558C14.8183 4.92199 14.4755 5.22028 14.153 5.54298L13.3062 6.38979L13.153 6.49867L12.4998 5.58334L11.8465 6.49867L11.6933 6.38979L10.8465 5.54298C10.524 5.22028 10.1812 4.92199 9.81836 4.6558C10.0442 4.23249 10.2982 3.82927 10.5764 3.43805L12.4998 0.744629L14.4232 3.43805Z" fill="#DA4453"/>
<path d="M9.27416 10.6638C9.17729 10.9058 9.0887 11.1517 9.00797 11.4017C8.65318 12.5106 8.46771 13.6799 8.46771 14.8575C8.46771 15.3454 8.55237 15.813 8.71362 16.2446L8.46771 16.0672H8.22987C7.6652 16.0672 7.11687 15.9422 6.62091 15.7083C6.12101 15.4785 5.67742 15.1357 5.31456 14.7041C4.74594 14.0227 4.43545 13.1639 4.43545 12.2728C4.43545 10.7768 4.62092 9.28481 4.98378 7.82922L5.08065 7.44608L5.09266 7.3937C5.18953 6.99461 5.2419 6.58331 5.2419 6.17202C5.2419 5.26062 4.99186 4.36144 4.52425 3.5792L4.03223 2.76074H4.13303C5.02415 2.76074 5.90325 2.88557 6.75006 3.12754C7.59668 3.37365 8.4112 3.73238 9.16528 4.20413C9.39111 4.34529 9.60887 4.49453 9.81856 4.65579C10.1814 4.92198 10.5242 5.22026 10.8467 5.54296L11.6935 6.38977L11.8467 6.49865L10.5766 8.27674C10.0444 9.02275 9.60887 9.82527 9.27416 10.6638Z" fill="#F54C64"/>
<path d="M19.9194 7.44608L20.0162 7.82922C20.3791 9.28481 20.5646 10.7768 20.5646 12.2728C20.5646 13.1639 20.2541 14.0227 19.6855 14.7041C19.3226 15.1357 18.879 15.4785 18.3791 15.7083C17.8831 15.9422 17.3348 16.0672 16.7701 16.0672H16.5323L16.3508 16.055C16.4677 15.676 16.5323 15.2769 16.5323 14.8575C16.5323 13.4139 16.2541 11.9904 15.7259 10.6638C15.3911 9.82527 14.9556 9.02275 14.4234 8.27675L13.1533 6.49865L13.3065 6.38978L14.1533 5.54296C14.4758 5.22026 14.8186 4.92198 15.1815 4.65579C15.3911 4.49453 15.6089 4.34529 15.8347 4.20413C16.5888 3.73238 17.4033 3.37365 18.2499 3.12754C19.0968 2.88557 19.9759 2.76074 20.867 2.76074H20.9678L20.4758 3.5792C20.0082 4.36144 19.7581 5.26062 19.7581 6.17202C19.7581 6.58332 19.8105 6.99461 19.9073 7.3937L19.9194 7.44608Z" fill="#F54C64"/>
<path d="M15.7258 10.6635C16.2541 11.9901 16.5323 13.4136 16.5323 14.8572C16.5323 15.2766 16.4677 15.6757 16.3508 16.0547C16.1533 16.6879 15.8066 17.2523 15.3508 17.7079C15.3427 17.716 15.3307 17.728 15.3226 17.7361C14.5969 18.4498 13.6008 18.8895 12.5 18.8895C11.3992 18.8895 10.4032 18.4498 9.67745 17.7361C9.25414 17.3209 8.91943 16.8127 8.71369 16.2443C8.55244 15.8127 8.46777 15.3451 8.46777 14.8572C8.46777 13.6796 8.65324 12.5103 9.00803 11.4014C9.08876 11.1514 9.17736 10.9055 9.27422 10.6635C9.60893 9.82495 10.0444 9.02244 10.5766 8.27643L11.8468 6.49834L12.5 5.58301L13.1533 6.49834L14.4234 8.27643C14.9556 9.02244 15.3911 9.82495 15.7258 10.6635Z" fill="#F54C64"/>
<path d="M9.27404 6.79278C9.27404 7.23814 8.91295 7.59923 8.46759 7.59923C8.02223 7.59923 7.66113 7.23814 7.66113 6.79278C7.66113 6.34722 8.02223 5.98633 8.46759 5.98633C8.91295 5.98633 9.27404 6.34722 9.27404 6.79278Z" fill="#FFC729"/>
<path d="M17.3385 6.79278C17.3385 7.23814 16.9774 7.59923 16.532 7.59923C16.0867 7.59923 15.7256 7.23814 15.7256 6.79278C15.7256 6.34722 16.0867 5.98633 16.532 5.98633C16.9774 5.98633 17.3385 6.34722 17.3385 6.79278Z" fill="#FFC729"/>
<path d="M14.1129 12.4378C14.1129 12.8832 13.7518 13.2442 13.3065 13.2442C12.8611 13.2442 12.5 12.8832 12.5 12.4378C12.5 11.9922 12.8611 11.6313 13.3065 11.6313C13.7518 11.6313 14.1129 11.9922 14.1129 12.4378Z" fill="#FFC729"/>
<path d="M14.1129 14.0511C14.1129 14.4964 13.7518 14.8575 13.3065 14.8575C12.8611 14.8575 12.5 14.4964 12.5 14.0511C12.5 13.6055 12.8611 13.2446 13.3065 13.2446C13.7518 13.2446 14.1129 13.6055 14.1129 14.0511Z" fill="#FFC729"/>
<path d="M12.5001 11.6316C12.5001 12.077 12.139 12.4381 11.6937 12.4381C11.2483 12.4381 10.8872 12.077 10.8872 11.6316C10.8872 11.1861 11.2483 10.8252 11.6937 10.8252C12.139 10.8252 12.5001 11.1861 12.5001 11.6316Z" fill="#FFC729"/>
<path d="M12.5001 13.2444C12.5001 13.6898 12.139 14.0509 11.6937 14.0509C11.2483 14.0509 10.8872 13.6898 10.8872 13.2444C10.8872 12.7989 11.2483 12.438 11.6937 12.438C12.139 12.438 12.5001 12.7989 12.5001 13.2444Z" fill="#FFC729"/>
<path d="M12.5001 14.8572C12.5001 15.3026 12.139 15.6637 11.6937 15.6637C11.2483 15.6637 10.8872 15.3026 10.8872 14.8572C10.8872 14.4117 11.2483 14.0508 11.6937 14.0508C12.139 14.0508 12.5001 14.4117 12.5001 14.8572Z" fill="#FFC729"/>
<path d="M12.8564 15.1718C12.996 15.2279 13.1472 15.2606 13.3065 15.2606C13.9733 15.2606 14.5161 14.7178 14.5161 14.0509C14.5161 13.74 14.3949 13.4589 14.2017 13.2445C14.3953 13.0298 14.5161 12.7489 14.5161 12.438C14.5161 11.7709 13.9733 11.2283 13.3065 11.2283C13.1472 11.2283 12.996 11.2608 12.8564 11.3169C12.7174 10.8029 12.2511 10.4219 11.6936 10.4219C11.0267 10.4219 10.4839 10.9645 10.4839 11.6316C10.4839 11.9424 10.6052 12.2234 10.7983 12.438C10.6048 12.6524 10.4839 12.9336 10.4839 13.2445C10.4839 13.5553 10.6052 13.8363 10.7983 14.0509C10.6048 14.2653 10.4839 14.5465 10.4839 14.8574C10.4839 15.5242 11.0267 16.067 11.6936 16.067C12.2511 16.067 12.7174 15.6859 12.8564 15.1718ZM11.2903 13.2445C11.2903 13.0218 11.4711 12.8412 11.6936 12.8412C11.916 12.8412 12.0968 13.0218 12.0968 13.2445C12.0968 13.4669 11.916 13.6477 11.6936 13.6477C11.4711 13.6477 11.2903 13.4669 11.2903 13.2445ZM13.3065 14.4541C13.084 14.4541 12.9032 14.2734 12.9032 14.0509C12.9032 13.8282 13.084 13.6477 13.3065 13.6477C13.529 13.6477 13.7097 13.8282 13.7097 14.0509C13.7097 14.2734 13.529 14.4541 13.3065 14.4541ZM13.3065 12.0348C13.529 12.0348 13.7097 12.2153 13.7097 12.438C13.7097 12.6605 13.529 12.8412 13.3065 12.8412C13.084 12.8412 12.9032 12.6605 12.9032 12.438C12.9032 12.2153 13.084 12.0348 13.3065 12.0348ZM11.6936 11.2283C11.916 11.2283 12.0968 11.4089 12.0968 11.6316C12.0968 11.854 11.916 12.0348 11.6936 12.0348C11.4711 12.0348 11.2903 11.854 11.2903 11.6316C11.2903 11.4089 11.4711 11.2283 11.6936 11.2283ZM11.6936 15.2606C11.4711 15.2606 11.2903 15.0798 11.2903 14.8574C11.2903 14.6347 11.4711 14.4541 11.6936 14.4541C11.916 14.4541 12.0968 14.6347 12.0968 14.8574C12.0968 15.0798 11.916 15.2606 11.6936 15.2606Z" fill="black"/>
<path d="M21.2444 16.0193C21.6787 15.4282 22.0132 14.772 22.2383 14.0716C22.4653 13.3768 22.5806 12.6511 22.5806 11.9136V10.8571C22.5806 9.24101 22.7145 7.62456 22.9782 6.0532L23.0798 5.44836L22.4838 5.59465C21.6496 5.7998 20.8665 6.17862 20.1928 6.68777C20.1737 6.5149 20.1613 6.34223 20.1613 6.17172C20.1613 5.33377 20.3895 4.50881 20.8218 3.78663L21.6807 2.35722H20.8669C19.9447 2.35722 19.027 2.48579 18.1375 2.74017C17.2418 3.00026 16.3952 3.3773 15.6205 3.86204C15.5108 3.93055 15.4072 3.99907 15.3064 4.06798C15.133 3.77442 14.9509 3.48382 14.7512 3.20305L12.5 0.050293L10.2484 3.20384C10.0415 3.49464 9.8621 3.78053 9.69278 4.06798C9.59158 3.99907 9.4888 3.93055 9.37953 3.86243C8.60478 3.37769 7.75816 3.00026 6.86094 2.73978C5.97298 2.48579 5.05529 2.35722 4.13306 2.35722H3.31933L4.17776 3.78623C4.61052 4.50881 4.83871 5.33377 4.83871 6.17172C4.83871 6.34223 4.82631 6.51529 4.80681 6.68895C4.12499 6.17409 3.34512 5.79902 2.51622 5.59465L1.92024 5.44836L2.02184 6.0532C2.28547 7.62456 2.41935 9.24101 2.41935 10.8571V11.9136C2.41935 12.6511 2.53473 13.3768 2.76135 14.0693C2.98718 14.772 3.32169 15.4282 3.75524 16.0181C4.58354 17.1551 5.74872 18.0143 7.06531 18.4794L5.38704 22.1153H4.03226V21.3088H0V23.7282H4.03226V22.9217H5.90328L7.84794 18.7083C8.35315 18.8265 8.87176 18.8895 9.39508 18.8895H9.51538C9.84202 19.7022 10.4789 20.3439 11.2903 20.6713V24.9379H13.7097V20.6713C14.5218 20.3435 15.159 19.7011 15.485 18.8895H15.6049C17.8254 18.8895 19.9343 17.8161 21.2444 16.0193ZM3.22581 22.9217H0.806452V22.1153H3.22581V22.9217ZM9.95976 17.4483C9.57268 17.0689 9.27301 16.6052 9.09148 16.1031C8.9452 15.7119 8.87097 15.2925 8.87097 14.8572C8.87097 13.7261 9.0464 12.6046 9.39154 11.5253C9.46931 11.2837 9.55476 11.0467 9.64887 10.8128C9.97413 9.99745 10.3968 9.22289 10.9048 8.51036L12.5 6.27686L14.0948 8.51075C14.6032 9.22329 15.0263 9.99784 15.3511 10.8128C15.8674 12.1097 16.129 13.4705 16.129 14.8572C16.129 15.2213 16.0737 15.5841 15.9662 15.9346C15.7912 16.4941 15.4799 17.0088 15.0729 17.416L15.0387 17.4498C14.3584 18.1181 13.4573 18.4863 12.5 18.4863C11.5423 18.4863 10.6404 18.1177 9.95976 17.4483ZM21.7742 10.8571V11.9136C21.7742 12.5656 21.6726 13.2071 21.471 13.8224C21.2717 14.4422 20.9766 15.0208 20.5935 15.543C19.4517 17.1088 17.6258 18.0482 15.6959 18.0773C15.7032 18.0212 15.7065 17.9649 15.7105 17.9084C16.1044 17.4934 16.4133 17.0031 16.623 16.4697H16.7701C17.3927 16.4697 17.992 16.3362 18.5476 16.074C19.1016 15.8192 19.5883 15.4455 19.9951 14.962C20.6226 14.2104 20.9677 13.2551 20.9677 12.2725C20.9677 10.7503 20.7791 9.2225 20.4068 7.73048L20.3714 7.58853C20.8778 7.14553 21.456 6.7931 22.0823 6.56077C21.8778 7.97285 21.7742 9.41525 21.7742 10.8571ZM16.0483 4.54583C16.7601 4.10066 17.5384 3.75395 18.3606 3.51512C18.9754 3.33891 19.6061 3.22885 20.242 3.18494L20.1298 3.37198C19.623 4.21958 19.3548 5.18788 19.3548 6.17172C19.3548 6.54699 19.4029 6.92777 19.4818 7.30521L19.473 7.31407L19.486 7.32686C19.4972 7.37924 19.5021 7.43259 19.5145 7.48497L19.6242 7.92698C19.9811 9.35402 20.1613 10.8161 20.1613 12.2725C20.1613 13.0667 19.8827 13.8385 19.3771 14.4447C19.0489 14.8354 18.6561 15.1374 18.2072 15.3433C17.7839 15.543 17.3302 15.6467 16.8597 15.6588C16.9081 15.3937 16.9355 15.1262 16.9355 14.8572C16.9355 13.3951 16.6634 11.9604 16.129 10.5911V7.92777C16.2556 7.97325 16.3903 8.00239 16.5323 8.00239C17.1991 8.00239 17.7419 7.45957 17.7419 6.79271C17.7419 6.12565 17.1991 5.58303 16.5323 5.58303C15.8654 5.58303 15.3226 6.12565 15.3226 6.79271V8.93425C15.144 8.62888 14.9564 8.32942 14.7512 8.04176L13.6985 6.56727L14.4384 5.82737C14.7548 5.51077 15.0851 5.22607 15.4279 4.97445C15.6189 4.82777 15.8217 4.687 16.0483 4.54583ZM16.129 6.79271C16.129 6.57003 16.3098 6.38948 16.5323 6.38948C16.7547 6.38948 16.9355 6.57003 16.9355 6.79271C16.9355 7.01519 16.7547 7.19593 16.5323 7.19593C16.3098 7.19593 16.129 7.01519 16.129 6.79271ZM12.5 1.43815L14.0948 3.67165C14.2988 3.95871 14.4842 4.2568 14.6585 4.55764C14.3891 4.77284 14.1229 5.0028 13.8678 5.25797L13.223 5.90278L12.5 4.889L11.7766 5.90199L11.1322 5.25758C10.8755 5.00064 10.6089 4.77048 10.3411 4.55666C10.5108 4.26231 10.6932 3.97013 10.9048 3.67204L12.5 1.43815ZM4.75759 3.18494C5.39393 3.22885 6.02417 3.3395 6.63787 3.51433C7.46165 3.75395 8.24034 4.10066 8.95169 4.54583C9.17831 4.68739 9.38071 4.82777 9.58016 4.98095C9.91487 5.22647 10.2452 5.51117 10.562 5.82816L11.3015 6.56767L10.2484 8.04216C10.0432 8.32981 9.8556 8.62928 9.67742 8.93425V6.79271C9.67742 6.12565 9.1346 5.58303 8.46774 5.58303C7.80088 5.58303 7.25807 6.12565 7.25807 6.79271C7.25807 7.45957 7.80088 8.00239 8.46774 8.00239C8.6097 8.00239 8.74437 7.97325 8.87097 7.92816V10.5938C8.78316 10.8181 8.69889 11.0467 8.62427 11.279C8.25274 12.4387 8.06452 13.6426 8.06452 14.8572C8.06452 15.1301 8.08913 15.3979 8.13677 15.6584C7.66739 15.6458 7.21495 15.5422 6.78947 15.3418C6.34431 15.137 5.95152 14.835 5.6237 14.4455C5.11731 13.8385 4.83871 13.0667 4.83871 12.2725C4.83871 10.8161 5.01886 9.35402 5.37503 7.92777L5.4843 7.48851C5.4971 7.43496 5.50202 7.38101 5.51364 7.32726L5.52703 7.31407L5.51817 7.30521C5.59712 6.926 5.64516 6.54581 5.64516 6.17172C5.64516 5.18788 5.377 4.21958 4.86982 3.37159L4.75759 3.18494ZM8.87097 6.79271C8.87097 7.01519 8.69023 7.19593 8.46774 7.19593C8.24526 7.19593 8.06452 7.01519 8.06452 6.79271C8.06452 6.57003 8.24526 6.38948 8.46774 6.38948C8.69023 6.38948 8.87097 6.57003 8.87097 6.79271ZM7.69831 17.1071L7.40534 17.7422C6.21043 17.3366 5.15353 16.5676 4.40556 15.5418C4.0234 15.0208 3.72826 14.4422 3.52823 13.82C3.3274 13.2071 3.22581 12.5656 3.22581 11.9136V10.8571C3.22581 9.41525 3.12224 7.97325 2.91728 6.56077C3.53709 6.79133 4.11259 7.1414 4.62824 7.58892L4.5924 7.73167C4.22088 9.2221 4.03226 10.75 4.03226 12.2725C4.03226 13.2555 4.3774 14.2108 5.00567 14.9635C5.41165 15.4459 5.89836 15.8196 6.44886 16.0728C7.00802 16.3366 7.60734 16.4701 8.2299 16.4701H8.37265C8.57741 16.9988 8.89184 17.4898 9.28876 17.9072C9.2927 17.9649 9.29644 18.022 9.30412 18.0797C8.93023 18.0742 8.55851 18.0346 8.19348 17.96L8.43112 17.4459L7.69831 17.1071ZM13.1915 19.9991L12.9032 20.0846V24.1314H12.0968V20.0846L11.8085 19.9991C11.1568 19.8052 10.615 19.3289 10.3226 18.7188C10.9798 19.0907 11.7239 19.2927 12.5 19.2927C13.2761 19.2927 14.0206 19.0907 14.6778 18.7184C14.3864 19.3278 13.844 19.8048 13.1915 19.9991Z" fill="black"/>
</svg>
