<svg width="240" height="183" viewBox="0 0 240 183" fill="none" xmlns="http://www.w3.org/2000/svg">
<path d="M-72.9641 25.2407C-49.8561 25.2091 -26.9676 30.1725 -5.60543 39.8476C15.7568 49.5226 35.1744 63.7198 51.5387 81.6285C67.903 99.5373 80.8935 120.807 89.7686 144.223C98.6437 167.639 103.229 192.743 103.264 218.101L-72.6999 218.342L-72.9641 25.2407Z" fill="#F78161"/>
<path d="M-1.92135 186.684C-1.94222 165.34 9.23643 144.86 29.1554 129.748C49.0744 114.637 76.1021 106.131 104.293 106.104C132.483 106.076 159.527 114.529 179.476 129.601C199.424 144.674 210.643 165.133 210.664 186.476L104.371 186.58L-1.92135 186.684Z" fill="#F54C64" fill-opacity="0.5"/>
</svg>
